<svg width="48" height="48" viewBox="0 0 48 48" fill="none" xmlns="http://www.w3.org/2000/svg">
<path d="M41.7188 15.6904C42.1072 15.6904 42.4219 15.3757 42.4219 14.9872V10.0781C42.4219 8.91506 41.4756 7.96875 40.3125 7.96875H39.6094V6.09375C39.6094 4.93069 38.6631 3.98438 37.5 3.98438H36.7969V2.10938C36.7969 0.946312 35.8506 0 34.6875 0H7.6875C6.52434 0 5.57812 0.946312 5.57812 2.10938V5.98734C5.57812 6.37575 5.89294 6.69047 6.28125 6.69047C6.66956 6.69047 6.98438 6.37575 6.98438 5.98734V2.10938C6.98438 1.72162 7.29975 1.40625 7.6875 1.40625H34.6875C35.0753 1.40625 35.3906 1.72162 35.3906 2.10938V37.9219C35.3906 38.3096 35.0753 38.625 34.6875 38.625H7.6875C7.29975 38.625 6.98438 38.3096 6.98438 37.9219V8.98734C6.98438 8.59894 6.66956 8.28422 6.28125 8.28422C5.89294 8.28422 5.57812 8.59894 5.57812 8.98734V37.9219C5.57812 39.0849 6.52434 40.0312 7.6875 40.0312H8.39062V41.9062C8.39062 43.0693 9.33684 44.0156 10.5 44.0156H11.2031V45.8906C11.2031 47.0537 12.1493 48 13.3125 48H40.3125C41.4756 48 42.4219 47.0537 42.4219 45.8906V17.9699C42.4219 17.5815 42.1072 17.2668 41.7188 17.2668C41.3303 17.2668 41.0156 17.5815 41.0156 17.9699V45.8906C41.0156 46.2784 40.7002 46.5938 40.3125 46.5938H13.3125C12.9247 46.5938 12.6094 46.2784 12.6094 45.8906V44.0156H29.9875C30.3759 44.0156 30.6907 43.7009 30.6907 43.3125C30.6907 42.9241 30.3759 42.6094 29.9875 42.6094H10.5C10.1123 42.6094 9.79688 42.294 9.79688 41.9062V40.0312H34.6875C35.8506 40.0312 36.7969 39.0849 36.7969 37.9219V5.39062H37.5C37.8877 5.39062 38.2031 5.706 38.2031 6.09375V41.9062C38.2031 42.294 37.8877 42.6094 37.5 42.6094H32.9701C32.5817 42.6094 32.267 42.9241 32.267 43.3125C32.267 43.7009 32.5817 44.0156 32.9701 44.0156H37.5C38.6631 44.0156 39.6094 43.0693 39.6094 41.9062V9.375H40.3125C40.7002 9.375 41.0156 9.69038 41.0156 10.0781V14.9872C41.0156 15.3757 41.3303 15.6904 41.7188 15.6904Z" fill="#005F89"/>
<path d="M10.3125 11.625V16.5C10.3125 17.0945 10.7962 17.5781 11.3906 17.5781H16.2656C16.8601 17.5781 17.3438 17.0945 17.3438 16.5V12.8741L18.7847 11.6441C19.08 11.392 19.1151 10.9482 18.8629 10.6529C18.6109 10.3575 18.167 10.3225 17.8716 10.5746L17.2224 11.1287C17.0425 10.7833 16.6812 10.5469 16.2655 10.5469H11.3905C10.7962 10.5469 10.3125 11.0305 10.3125 11.625ZM11.7188 11.9531H15.9375V12.2256L14.5423 13.4166L13.8761 12.695C13.6128 12.4098 13.1679 12.392 12.8826 12.6552C12.5972 12.9186 12.5795 13.3634 12.8428 13.6488L13.9678 14.8675C14.224 15.145 14.6538 15.1706 14.941 14.9254L15.9376 14.0746V16.1719H11.7188V11.9531H11.7188Z" fill="#005F89"/>
<path d="M31.3594 11.6719H20.1094C19.7211 11.6719 19.4062 11.9866 19.4062 12.375C19.4062 12.7634 19.7211 13.0781 20.1094 13.0781H31.3594C31.7478 13.0781 32.0625 12.7634 32.0625 12.375C32.0625 11.9866 31.7478 11.6719 31.3594 11.6719Z" fill="#005F89"/>
<path d="M31.3594 14.6719H20.1094C19.7211 14.6719 19.4062 14.9866 19.4062 15.375C19.4062 15.7634 19.7211 16.0781 20.1094 16.0781H31.3594C31.7478 16.0781 32.0625 15.7634 32.0625 15.375C32.0625 14.9866 31.7478 14.6719 31.3594 14.6719Z" fill="#005F89"/>
<path d="M10.3125 25.5938C10.3125 26.1882 10.7962 26.6719 11.3906 26.6719H16.2656C16.8601 26.6719 17.3438 26.1882 17.3438 25.5938V20.7188C17.3438 20.1243 16.8601 19.6406 16.2656 19.6406H11.3906C10.7962 19.6406 10.3125 20.1243 10.3125 20.7188V25.5938ZM11.7188 21.0469H15.9375V25.2656H11.7188V21.0469Z" fill="#005F89"/>
<path d="M31.3594 20.7656H20.1094C19.7211 20.7656 19.4062 21.0803 19.4062 21.4688C19.4062 21.8572 19.7211 22.1719 20.1094 22.1719H31.3594C31.7478 22.1719 32.0625 21.8572 32.0625 21.4688C32.0625 21.0803 31.7478 20.7656 31.3594 20.7656Z" fill="#005F89"/>
<path d="M31.3594 23.7656H20.1094C19.7211 23.7656 19.4062 24.0803 19.4062 24.4688C19.4062 24.8572 19.7211 25.1719 20.1094 25.1719H31.3594C31.7478 25.1719 32.0625 24.8572 32.0625 24.4688C32.0625 24.0803 31.7478 23.7656 31.3594 23.7656Z" fill="#005F89"/>
<path d="M10.3125 34.6875C10.3125 35.282 10.7962 35.7656 11.3906 35.7656H16.2656C16.8601 35.7656 17.3438 35.282 17.3438 34.6875V29.8125C17.3438 29.218 16.8601 28.7344 16.2656 28.7344H11.3906C10.7962 28.7344 10.3125 29.218 10.3125 29.8125V34.6875ZM11.7188 30.1406H15.9375V34.3594H11.7188V30.1406Z" fill="#005F89"/>
<path d="M31.3594 29.8594H20.1094C19.7211 29.8594 19.4062 30.1741 19.4062 30.5625C19.4062 30.9509 19.7211 31.2656 20.1094 31.2656H31.3594C31.7478 31.2656 32.0625 30.9509 32.0625 30.5625C32.0625 30.1741 31.7478 29.8594 31.3594 29.8594Z" fill="#005F89"/>
<path d="M31.3594 32.8594H20.1094C19.7211 32.8594 19.4062 33.1741 19.4062 33.5625C19.4062 33.9509 19.7211 34.2656 20.1094 34.2656H31.3594C31.7478 34.2656 32.0625 33.9509 32.0625 33.5625C32.0625 33.1741 31.7478 32.8594 31.3594 32.8594Z" fill="#005F89"/>
<path d="M27.7969 3.32812H14.8594C13.567 3.32812 12.5156 4.37953 12.5156 5.67188C12.5156 6.96422 13.567 8.01562 14.8594 8.01562H27.7969C29.0892 8.01562 30.1406 6.96422 30.1406 5.67188C30.1406 4.37953 29.0892 3.32812 27.7969 3.32812ZM27.7969 6.60938H14.8594C14.3424 6.60938 13.9219 6.18881 13.9219 5.67188C13.9219 5.15494 14.3424 4.73438 14.8594 4.73438H27.7969C28.3138 4.73438 28.7344 5.15494 28.7344 5.67188C28.7344 6.18881 28.3138 6.60938 27.7969 6.60938Z" fill="#005F89"/>
</svg>
