<svg width="48" height="48" viewBox="0 0 48 48" fill="none" xmlns="http://www.w3.org/2000/svg">
<path d="M47.2969 17.3535C46.9086 17.3535 46.5938 17.6682 46.5938 18.0566V39.0936C46.5938 40.4635 45.4793 41.5779 44.1094 41.5779H3.89062C2.52075 41.5779 1.40625 40.4635 1.40625 39.0936V35.9869C1.40625 35.5985 1.09144 35.2838 0.703125 35.2838C0.314812 35.2838 0 35.5985 0 35.9869V39.0936C0 41.2389 1.74534 42.9842 3.89062 42.9842H44.1094C46.2547 42.9842 48 41.2389 48 39.0936V18.0566C48 17.6683 47.6852 17.3535 47.2969 17.3535Z" fill="#F9A600"/>
<path d="M44.1094 5.01562H24C23.6117 5.01562 23.2969 5.33034 23.2969 5.71875C23.2969 6.10716 23.6117 6.42188 24 6.42188H44.1094C45.4793 6.42188 46.5938 7.53638 46.5938 8.90625V12.5156H38.2485V9.60666C38.2485 8.445 37.3034 7.5 36.1364 7.5C34.9748 7.5 34.0298 8.445 34.0298 9.60666V12.5156H1.40625V8.90625C1.40625 7.53638 2.52075 6.42188 3.89062 6.42188H20.9702C21.3585 6.42188 21.6733 6.10716 21.6733 5.71875C21.6733 5.33034 21.3585 5.01562 20.9702 5.01562H3.89062C1.74534 5.01562 0 6.76097 0 8.90625V32.9522C0 33.3406 0.314812 33.6553 0.703125 33.6553C1.09144 33.6553 1.40625 33.3406 1.40625 32.9522V13.9219H34.0298C34.05 28.8556 33.9598 29.0365 34.0708 29.3465L35.0311 32.2304C35.038 32.2514 35.046 32.2719 35.0549 32.2921C35.4701 33.2332 36.8074 33.2348 37.2233 32.2921C37.2323 32.2719 37.2402 32.2513 37.2472 32.2304L38.2074 29.3465C38.3085 29.0644 38.2274 29.488 38.2485 13.9219H46.5938V15.0315C46.5938 15.4199 46.9086 15.7346 47.2969 15.7346C47.6852 15.7346 48 15.4199 48 15.0315V8.90625C48 6.76097 46.2547 5.01562 44.1094 5.01562ZM35.436 21.7495H36.8423V28.4062H35.436V21.7495ZM35.436 20.3433V11.4845H36.8423V13.197C36.8421 13.2042 36.8419 13.2114 36.8419 13.2188C36.8419 13.2261 36.8421 13.2333 36.8423 13.2405V20.3433H35.436ZM35.436 9.60666C35.436 9.2205 35.7503 8.90625 36.1418 8.90625C36.528 8.90625 36.8423 9.2205 36.8423 9.60666V10.0782H35.436V9.60666ZM36.1391 31.1069L35.7081 29.8124H36.5701L36.1391 31.1069Z" fill="#F9A600"/>
<path d="M3.79688 9.43848C3.79688 10.6533 4.78519 11.6416 6 11.6416C7.21481 11.6416 8.20312 10.6533 8.20312 9.43848C8.20312 8.22366 7.21481 7.23535 6 7.23535C4.78519 7.23535 3.79688 8.22366 3.79688 9.43848ZM6.79688 9.43848C6.79688 9.87788 6.43941 10.2354 6 10.2354C5.56059 10.2354 5.20312 9.87788 5.20312 9.43848C5.20312 8.99907 5.56059 8.6416 6 8.6416C6.43941 8.6416 6.79688 8.99907 6.79688 9.43848Z" fill="#F9A600"/>
<path d="M9.14062 9.43848C9.14062 10.6533 10.1289 11.6416 11.3438 11.6416C12.5586 11.6416 13.5469 10.6533 13.5469 9.43848C13.5469 8.22366 12.5586 7.23535 11.3438 7.23535C10.1289 7.23535 9.14062 8.22366 9.14062 9.43848ZM12.1406 9.43848C12.1406 9.87788 11.7832 10.2354 11.3438 10.2354C10.9043 10.2354 10.5469 9.87788 10.5469 9.43848C10.5469 8.99907 10.9043 8.6416 11.3438 8.6416C11.7832 8.6416 12.1406 8.99907 12.1406 9.43848Z" fill="#F9A600"/>
<path d="M14.4844 9.43848C14.4844 10.6533 15.4727 11.6416 16.6875 11.6416C17.9023 11.6416 18.8906 10.6533 18.8906 9.43848C18.8906 8.22366 17.9023 7.23535 16.6875 7.23535C15.4727 7.23535 14.4844 8.22366 14.4844 9.43848ZM17.4844 9.43848C17.4844 9.87788 17.1269 10.2354 16.6875 10.2354C16.2481 10.2354 15.8906 9.87788 15.8906 9.43848C15.8906 8.99907 16.2481 8.6416 16.6875 8.6416C17.1269 8.6416 17.4844 8.99907 17.4844 9.43848Z" fill="#F9A600"/>
<path d="M13.7812 25.0264C14.3757 25.0264 14.8594 24.5427 14.8594 23.9482V19.0732C14.8594 18.4788 14.3757 17.9951 13.7812 17.9951H8.90625C8.31178 17.9951 7.82812 18.4788 7.82812 19.0732V23.9482C7.82812 24.5427 8.31178 25.0264 8.90625 25.0264H13.7812ZM9.23438 19.4014H13.4531V23.6201H9.23438V19.4014Z" fill="#F9A600"/>
<path d="M18.1875 18.6094H28.8232C29.2116 18.6094 29.5264 18.2947 29.5264 17.9062C29.5264 17.5178 29.2116 17.2031 28.8232 17.2031H18.1875C17.7992 17.2031 17.4844 17.5178 17.4844 17.9062C17.4844 18.2947 17.7992 18.6094 18.1875 18.6094Z" fill="#F9A600"/>
<path d="M18.1875 22.2139H28.8232C29.2116 22.2139 29.5264 21.8991 29.5264 21.5107C29.5264 21.1223 29.2116 20.8076 28.8232 20.8076H18.1875C17.7992 20.8076 17.4844 21.1223 17.4844 21.5107C17.4844 21.8991 17.7992 22.2139 18.1875 22.2139Z" fill="#F9A600"/>
<path d="M18.1875 25.7812H28.8232C29.2116 25.7812 29.5264 25.4665 29.5264 25.0781C29.5264 24.6897 29.2116 24.375 28.8232 24.375H18.1875C17.7992 24.375 17.4844 24.6897 17.4844 25.0781C17.4844 25.4665 17.7992 25.7812 18.1875 25.7812Z" fill="#F9A600"/>
<path d="M6.79688 28.6455C6.79688 29.0339 7.11169 29.3486 7.5 29.3486H28.8232C29.2116 29.3486 29.5264 29.0339 29.5264 28.6455C29.5264 28.2571 29.2116 27.9424 28.8232 27.9424H7.5C7.11169 27.9424 6.79688 28.2571 6.79688 28.6455Z" fill="#F9A600"/>
<path d="M7.5 32.916H28.8232C29.2116 32.916 29.5264 32.6013 29.5264 32.2129C29.5264 31.8245 29.2116 31.5098 28.8232 31.5098H7.5C7.11169 31.5098 6.79688 31.8245 6.79688 32.2129C6.79688 32.6013 7.11169 32.916 7.5 32.916Z" fill="#F9A600"/>
<path d="M7.5 36.4834H40.5923C40.9806 36.4834 41.2954 36.1687 41.2954 35.7803C41.2954 35.3919 40.9806 35.0771 40.5923 35.0771H7.5C7.11169 35.0771 6.79688 35.3919 6.79688 35.7803C6.79688 36.1687 7.11169 36.4834 7.5 36.4834Z" fill="#F9A600"/>
</svg>
