<svg width="48" height="48" viewBox="0 0 48 48" fill="none" xmlns="http://www.w3.org/2000/svg">
<g clip-path="url(#clip0)">
<path d="M11.9963 46.5942H10.3125C9.14934 46.5942 8.20312 45.648 8.20312 44.4848V11.9883C8.20312 11.6 7.88831 11.2852 7.5 11.2852C7.11169 11.2852 6.79688 11.6 6.79688 11.9883V44.4848C6.79688 46.4234 8.37394 48.0005 10.3125 48.0005H11.9963C12.3847 48.0005 12.6995 47.6857 12.6995 47.2973C12.6995 46.909 12.3847 46.5942 11.9963 46.5942Z" fill="#2F80ED"/>
<path d="M40.5001 41.2852C40.1118 41.2852 39.7969 41.6 39.7969 41.9883V44.4848C39.7969 45.648 38.8507 46.5942 37.6876 46.5942H14.9878C14.5995 46.5942 14.2847 46.909 14.2847 47.2973C14.2847 47.6857 14.5995 48.0005 14.9878 48.0005H37.6876C39.6261 48.0005 41.2032 46.4234 41.2032 44.4848V41.9883C41.2032 41.6 40.8884 41.2852 40.5001 41.2852Z" fill="#2F80ED"/>
<path d="M37.6875 3.46875H30.7969V1.64062C30.7969 0.736031 30.0608 0 29.1562 0H18.8438C17.9392 0 17.2031 0.736031 17.2031 1.64062V3.46875H10.3125C8.37394 3.46875 6.79688 5.04581 6.79688 6.98438V8.95294C6.79688 9.34125 7.11169 9.65606 7.5 9.65606C7.88831 9.65606 8.20312 9.34125 8.20312 8.95294V6.98438C8.20312 5.82122 9.14934 4.875 10.3125 4.875H17.2031V5.57812C17.2031 6.48272 17.9392 7.21875 18.8438 7.21875H29.1562C30.0608 7.21875 30.7969 6.48272 30.7969 5.57812V4.875H37.6875C38.8507 4.875 39.7969 5.82122 39.7969 6.98438V38.9878C39.7969 39.3761 40.1117 39.6909 40.5 39.6909C40.8883 39.6909 41.2031 39.3761 41.2031 38.9878V6.98438C41.2031 5.04581 39.6261 3.46875 37.6875 3.46875ZM29.3906 5.57812C29.3906 5.70731 29.2854 5.8125 29.1562 5.8125H18.8438C18.7146 5.8125 18.6094 5.70731 18.6094 5.57812V1.64062C18.6094 1.51144 18.7146 1.40625 18.8438 1.40625H29.1562C29.2854 1.40625 29.3906 1.51144 29.3906 1.64062V5.57812Z" fill="#2F80ED"/>
<path d="M26.8125 10.1719H21.1875C20.7992 10.1719 20.4844 10.4867 20.4844 10.875V13.6015H15.5625C15.1742 13.6015 14.8594 13.9163 14.8594 14.3047V21.9844H13.9688C13.5804 21.9844 13.2656 22.2992 13.2656 22.6875C13.2656 23.0758 13.5804 23.3906 13.9688 23.3906H34.0312C34.4196 23.3906 34.7344 23.0758 34.7344 22.6875C34.7344 22.2992 34.4196 21.9844 34.0312 21.9844H33.1406V17.6086C33.1406 17.2203 32.8258 16.9055 32.4375 16.9055H27.5156V10.875C27.5156 10.4867 27.2008 10.1719 26.8125 10.1719ZM16.2656 15.0078H20.4844V21.9844H16.2656V15.0078ZM21.8906 11.5781H26.1094V21.9844H21.8906V11.5781ZM31.7344 18.3117V21.9844H27.5156V18.3117H31.7344Z" fill="#2F80ED"/>
<path d="M13.125 31.6875C13.125 32.282 13.6087 32.7656 14.2031 32.7656H19.0781C19.6726 32.7656 20.1562 32.282 20.1562 31.6875V26.8125C20.1562 26.218 19.6726 25.7344 19.0781 25.7344H14.2031C13.6087 25.7344 13.125 26.218 13.125 26.8125V31.6875ZM14.5312 27.1406H18.75V31.3594H14.5312V27.1406Z" fill="#2F80ED"/>
<path d="M34.1719 26.8594H22.9219C22.5336 26.8594 22.2188 27.1742 22.2188 27.5625C22.2188 27.9508 22.5336 28.2656 22.9219 28.2656H34.1719C34.5602 28.2656 34.875 27.9508 34.875 27.5625C34.875 27.1742 34.5602 26.8594 34.1719 26.8594Z" fill="#2F80ED"/>
<path d="M34.1719 29.8594H22.9219C22.5336 29.8594 22.2188 30.1742 22.2188 30.5625C22.2188 30.9508 22.5336 31.2656 22.9219 31.2656H34.1719C34.5602 31.2656 34.875 30.9508 34.875 30.5625C34.875 30.1742 34.5602 29.8594 34.1719 29.8594Z" fill="#2F80ED"/>
<path d="M20.1562 40.7812V35.9062C20.1562 35.3118 19.6726 34.8281 19.0781 34.8281H14.2031C13.6087 34.8281 13.125 35.3118 13.125 35.9062V40.7812C13.125 41.3757 13.6087 41.8594 14.2031 41.8594H19.0781C19.6726 41.8594 20.1562 41.3757 20.1562 40.7812ZM18.75 40.4531H14.5312V36.2344H18.75V40.4531Z" fill="#2F80ED"/>
<path d="M34.1719 35.9531H22.9219C22.5336 35.9531 22.2188 36.2679 22.2188 36.6562C22.2188 37.0446 22.5336 37.3594 22.9219 37.3594H34.1719C34.5602 37.3594 34.875 37.0446 34.875 36.6562C34.875 36.2679 34.5602 35.9531 34.1719 35.9531Z" fill="#2F80ED"/>
<path d="M34.1719 38.9531H22.9219C22.5336 38.9531 22.2188 39.2679 22.2188 39.6562C22.2188 40.0446 22.5336 40.3594 22.9219 40.3594H34.1719C34.5602 40.3594 34.875 40.0446 34.875 39.6562C34.875 39.2679 34.5602 38.9531 34.1719 38.9531Z" fill="#2F80ED"/>
</g>
<defs>
<clipPath id="clip0">
<rect width="48" height="48" fill="white"/>
</clipPath>
</defs>
</svg>
