<svg width="48" height="48" viewBox="0 0 48 48" fill="none" xmlns="http://www.w3.org/2000/svg">
<path d="M47.2969 37.5166C46.9085 37.5166 46.5938 37.8313 46.5938 38.2197V39.0934C46.5938 40.4633 45.4793 41.5778 44.1094 41.5778H3.89062C2.52075 41.5778 1.40625 40.4633 1.40625 39.0934V20.9697C1.40625 20.5813 1.09153 20.2666 0.703125 20.2666C0.314719 20.2666 0 20.5813 0 20.9697V39.0934C0 41.2387 1.74534 42.984 3.89062 42.984H44.1094C46.2547 42.984 48 41.2387 48 39.0934V38.2197C48 37.8313 47.6853 37.5166 47.2969 37.5166Z" fill="#27AE60"/>
<path d="M44.1094 5.01562H42.0139C41.6255 5.01562 41.3108 5.33034 41.3108 5.71875C41.3108 6.10716 41.6255 6.42188 42.0139 6.42188H44.1094C45.4793 6.42188 46.5938 7.53638 46.5938 8.90625V12.5156H1.40625V8.90625C1.40625 7.53638 2.52075 6.42188 3.89062 6.42188H38.979C39.3674 6.42188 39.6821 6.10716 39.6821 5.71875C39.6821 5.33034 39.3674 5.01562 38.979 5.01562H3.89062C1.74534 5.01562 0 6.76097 0 8.90625V17.9515C0 18.3399 0.314719 18.6547 0.703125 18.6547C1.09153 18.6547 1.40625 18.3399 1.40625 17.9515V13.9219H46.5938V35.2026C46.5938 35.591 46.9085 35.9057 47.2969 35.9057C47.6853 35.9057 48 35.591 48 35.2026V8.90625C48 6.76097 46.2547 5.01562 44.1094 5.01562Z" fill="#27AE60"/>
<path d="M3.79688 9.4375C3.79688 10.6523 4.78519 11.6406 6 11.6406C7.21481 11.6406 8.20312 10.6523 8.20312 9.4375C8.20312 8.22269 7.21481 7.23438 6 7.23438C4.78519 7.23438 3.79688 8.22269 3.79688 9.4375ZM6.79688 9.4375C6.79688 9.87691 6.43941 10.2344 6 10.2344C5.56059 10.2344 5.20312 9.87691 5.20312 9.4375C5.20312 8.99809 5.56059 8.64063 6 8.64063C6.43941 8.64063 6.79688 8.99809 6.79688 9.4375Z" fill="#27AE60"/>
<path d="M9.14062 9.4375C9.14062 10.6523 10.1289 11.6406 11.3438 11.6406C12.5586 11.6406 13.5469 10.6523 13.5469 9.4375C13.5469 8.22269 12.5586 7.23438 11.3438 7.23438C10.1289 7.23438 9.14062 8.22269 9.14062 9.4375ZM12.1406 9.4375C12.1406 9.87691 11.7832 10.2344 11.3438 10.2344C10.9043 10.2344 10.5469 9.87691 10.5469 9.4375C10.5469 8.99809 10.9043 8.64063 11.3438 8.64063C11.7832 8.64063 12.1406 8.99809 12.1406 9.4375Z" fill="#27AE60"/>
<path d="M14.4844 9.4375C14.4844 10.6523 15.4727 11.6406 16.6875 11.6406C17.9023 11.6406 18.8906 10.6523 18.8906 9.4375C18.8906 8.22269 17.9023 7.23438 16.6875 7.23438C15.4727 7.23438 14.4844 8.22269 14.4844 9.4375ZM17.4844 9.4375C17.4844 9.87691 17.1269 10.2344 16.6875 10.2344C16.2481 10.2344 15.8906 9.87691 15.8906 9.4375C15.8906 8.99809 16.2481 8.64063 16.6875 8.64063C17.1269 8.64063 17.4844 8.99809 17.4844 9.4375Z" fill="#27AE60"/>
<path d="M10.4062 17.6719C10.0178 17.6719 9.70312 17.9866 9.70312 18.375V22.7741H9.28125C8.32491 22.7741 7.54688 23.5522 7.54688 24.5085V29.1526C7.54688 30.1089 8.32491 30.887 9.28125 30.887H9.70312V36.1875C9.70312 36.5759 10.0178 36.8906 10.4062 36.8906C10.7947 36.8906 11.1094 36.5759 11.1094 36.1875V30.887H11.5312C12.4876 30.887 13.2656 30.1089 13.2656 29.1526V24.5085C13.2656 23.5522 12.4876 22.7741 11.5312 22.7741H11.1094V18.375C11.1094 17.9866 10.7947 17.6719 10.4062 17.6719ZM11.8594 24.5085V29.1526C11.8594 29.3335 11.7122 29.4807 11.5312 29.4807H10.4135C10.411 29.4807 10.4086 29.4806 10.4062 29.4806C10.4039 29.4806 10.4014 29.4807 10.399 29.4807H9.28125C9.10031 29.4807 8.95312 29.3335 8.95312 29.1526V24.5085C8.95312 24.3276 9.10031 24.1804 9.28125 24.1804H11.5312C11.7122 24.1804 11.8594 24.3276 11.8594 24.5085Z" fill="#27AE60"/>
<path d="M17.2031 17.6719C16.8147 17.6719 16.5 17.9866 16.5 18.375V27.1346H16.0781C15.1218 27.1346 14.3438 27.9127 14.3438 28.869V33.5131C14.3438 34.4694 15.1218 35.2475 16.0781 35.2475H16.5V36.1875C16.5 36.5759 16.8147 36.8906 17.2031 36.8906C17.5915 36.8906 17.9062 36.5759 17.9062 36.1875V35.2475H18.3281C19.2845 35.2475 20.0625 34.4694 20.0625 33.5131V28.869C20.0625 27.9127 19.2845 27.1346 18.3281 27.1346H17.9062V18.375C17.9062 17.9866 17.5915 17.6719 17.2031 17.6719ZM18.6562 28.869V33.5131C18.6562 33.694 18.5091 33.8412 18.3281 33.8412H17.2224C17.216 33.841 17.2096 33.8409 17.2031 33.8409C17.1967 33.8409 17.1902 33.841 17.1838 33.8412H16.0781C15.8972 33.8412 15.75 33.694 15.75 33.5131V28.869C15.75 28.6881 15.8972 28.5409 16.0781 28.5409H17.1789C17.187 28.5412 17.1951 28.5413 17.2031 28.5413C17.2112 28.5413 17.2192 28.5412 17.2273 28.5409H18.3281C18.5091 28.5409 18.6562 28.6881 18.6562 28.869Z" fill="#27AE60"/>
<path d="M24 17.6719C23.6116 17.6719 23.2969 17.9866 23.2969 18.375V19.4208H22.875C21.9187 19.4208 21.1406 20.1988 21.1406 21.1552V25.7992C21.1406 26.7556 21.9187 27.5336 22.875 27.5336H23.2969V36.1875C23.2969 36.5759 23.6116 36.8906 24 36.8906C24.3884 36.8906 24.7031 36.5759 24.7031 36.1875V27.5336H25.125C26.0813 27.5336 26.8594 26.7556 26.8594 25.7992V21.1552C26.8594 20.1988 26.0813 19.4208 25.125 19.4208H24.7031V18.375C24.7031 17.9866 24.3884 17.6719 24 17.6719ZM25.4531 21.1552V25.7992C25.4531 25.9802 25.3059 26.1274 25.125 26.1274H24.0145C24.0097 26.1273 24.0049 26.1272 24 26.1272C23.9951 26.1272 23.9903 26.1273 23.9855 26.1274H22.875C22.6941 26.1274 22.5469 25.9802 22.5469 25.7992V21.1552C22.5469 20.9742 22.6941 20.827 22.875 20.827H23.9758C23.9839 20.8273 23.9919 20.8275 24 20.8275C24.0081 20.8275 24.0161 20.8273 24.0242 20.827H25.125C25.3059 20.827 25.4531 20.9743 25.4531 21.1552Z" fill="#27AE60"/>
<path d="M30.7969 17.6719C30.4085 17.6719 30.0938 17.9866 30.0938 18.375V25.3162H29.6719C28.7155 25.3162 27.9375 26.0942 27.9375 27.0505V31.6946C27.9375 32.651 28.7155 33.429 29.6719 33.429H30.0938V36.1875C30.0938 36.5759 30.4085 36.8906 30.7969 36.8906C31.1853 36.8906 31.5 36.5759 31.5 36.1875V33.429H31.9219C32.8782 33.429 33.6562 32.651 33.6562 31.6946V27.0505C33.6562 26.0942 32.8782 25.3162 31.9219 25.3162H31.5V18.375C31.5 17.9866 31.1853 17.6719 30.7969 17.6719ZM32.25 27.0505V31.6946C32.25 31.8756 32.1028 32.0227 31.9219 32.0227H29.6719C29.4909 32.0227 29.3438 31.8756 29.3438 31.6946V27.0505C29.3438 26.8696 29.4909 26.7224 29.6719 26.7224H30.7897C30.7921 26.7224 30.7945 26.7225 30.7969 26.7225C30.7992 26.7225 30.8017 26.7224 30.8041 26.7224H31.9219C32.1028 26.7224 32.25 26.8696 32.25 27.0505Z" fill="#27AE60"/>
<path d="M37.5938 17.6719C37.2053 17.6719 36.8906 17.9866 36.8906 18.375V21.7581H36.4688C35.5124 21.7581 34.7344 22.5361 34.7344 23.4924V28.1365C34.7344 29.0929 35.5124 29.8709 36.4688 29.8709H36.8906V36.1875C36.8906 36.5759 37.2053 36.8906 37.5938 36.8906C37.9822 36.8906 38.2969 36.5759 38.2969 36.1875V29.8709H38.7188C39.6751 29.8709 40.4531 29.0929 40.4531 28.1365V23.4924C40.4531 22.5361 39.6751 21.7581 38.7188 21.7581H38.2969V18.375C38.2969 17.9866 37.9822 17.6719 37.5938 17.6719ZM39.0469 23.4924V28.1365C39.0469 28.3175 38.8997 28.4647 38.7188 28.4647H37.6131C37.6066 28.4645 37.6002 28.4644 37.5938 28.4644C37.5873 28.4644 37.5808 28.4645 37.5744 28.4647H36.4688C36.2878 28.4647 36.1406 28.3175 36.1406 28.1365V23.4924C36.1406 23.3115 36.2878 23.1643 36.4688 23.1643H37.572C37.5792 23.1645 37.5864 23.1647 37.5938 23.1647C37.6011 23.1647 37.6083 23.1646 37.6155 23.1643H38.7188C38.8997 23.1643 39.0469 23.3115 39.0469 23.4924Z" fill="#27AE60"/>
<path d="M10.125 26.4844H10.6875C11.0759 26.4844 11.3906 26.1697 11.3906 25.7812C11.3906 25.3928 11.0759 25.0781 10.6875 25.0781H10.125C9.73659 25.0781 9.42188 25.3928 9.42188 25.7812C9.42188 26.1697 9.73659 26.4844 10.125 26.4844Z" fill="#27AE60"/>
<path d="M10.125 28.5469H10.6875C11.0759 28.5469 11.3906 28.2322 11.3906 27.8438C11.3906 27.4553 11.0759 27.1406 10.6875 27.1406H10.125C9.73659 27.1406 9.42188 27.4553 9.42188 27.8438C9.42188 28.2322 9.73659 28.5469 10.125 28.5469Z" fill="#27AE60"/>
<path d="M16.9219 29.457C16.5335 29.457 16.2188 29.7717 16.2188 30.1602C16.2188 30.5486 16.5335 30.8633 16.9219 30.8633H17.4844C17.8728 30.8633 18.1875 30.5486 18.1875 30.1602C18.1875 29.7717 17.8728 29.457 17.4844 29.457H16.9219Z" fill="#27AE60"/>
<path d="M17.4844 31.5195H16.9219C16.5335 31.5195 16.2188 31.8342 16.2188 32.2227C16.2188 32.6111 16.5335 32.9258 16.9219 32.9258H17.4844C17.8728 32.9258 18.1875 32.6111 18.1875 32.2227C18.1875 31.8342 17.8728 31.5195 17.4844 31.5195Z" fill="#27AE60"/>
<path d="M23.7188 21.7432C23.3303 21.7432 23.0156 22.0579 23.0156 22.4463C23.0156 22.8347 23.3303 23.1494 23.7188 23.1494H24.2812C24.6697 23.1494 24.9844 22.8347 24.9844 22.4463C24.9844 22.0579 24.6697 21.7432 24.2812 21.7432H23.7188Z" fill="#27AE60"/>
<path d="M24.2812 23.8057H23.7188C23.3303 23.8057 23.0156 24.1204 23.0156 24.5088C23.0156 24.8972 23.3303 25.2119 23.7188 25.2119H24.2812C24.6697 25.2119 24.9844 24.8972 24.9844 24.5088C24.9844 24.1204 24.6697 23.8057 24.2812 23.8057Z" fill="#27AE60"/>
<path d="M30.5156 27.6387C30.1272 27.6387 29.8125 27.9534 29.8125 28.3418C29.8125 28.7302 30.1272 29.0449 30.5156 29.0449H31.0781C31.4665 29.0449 31.7812 28.7302 31.7812 28.3418C31.7812 27.9534 31.4665 27.6387 31.0781 27.6387H30.5156Z" fill="#27AE60"/>
<path d="M31.0781 29.7012H30.5156C30.1272 29.7012 29.8125 30.0159 29.8125 30.4043C29.8125 30.7927 30.1272 31.1074 30.5156 31.1074H31.0781C31.4665 31.1074 31.7812 30.7927 31.7812 30.4043C31.7812 30.0159 31.4665 29.7012 31.0781 29.7012Z" fill="#27AE60"/>
<path d="M37.3125 24.0801C36.9241 24.0801 36.6094 24.3948 36.6094 24.7832C36.6094 25.1716 36.9241 25.4863 37.3125 25.4863H37.875C38.2634 25.4863 38.5781 25.1716 38.5781 24.7832C38.5781 24.3948 38.2634 24.0801 37.875 24.0801H37.3125Z" fill="#27AE60"/>
<path d="M37.875 26.1426H37.3125C36.9241 26.1426 36.6094 26.4573 36.6094 26.8457C36.6094 27.2341 36.9241 27.5488 37.3125 27.5488H37.875C38.2634 27.5488 38.5781 27.2341 38.5781 26.8457C38.5781 26.4573 38.2634 26.1426 37.875 26.1426Z" fill="#27AE60"/>
</svg>
