<svg width="48" height="48" viewBox="0 0 48 48" fill="none" xmlns="http://www.w3.org/2000/svg">
<path d="M43.6875 27.6562C44.0759 27.6562 44.3906 27.3414 44.3906 26.9531V22.7184C44.3906 21.0989 43.234 19.7812 41.8125 19.7812H38.7656V0.703125C38.7656 0.314812 38.4509 0 38.0625 0H9.9375C9.54909 0 9.23438 0.314812 9.23438 0.703125V2.95312C9.23438 3.34144 9.54909 3.65625 9.9375 3.65625C10.3259 3.65625 10.6406 3.34144 10.6406 2.95312V1.40625H37.3594V23.9427L24 33.0399L10.6406 23.9427V6.02297C10.6406 5.63466 10.3259 5.31984 9.9375 5.31984C9.54909 5.31984 9.23438 5.63466 9.23438 6.02297V19.7812H6.1875C4.76597 19.7812 3.60938 21.0989 3.60938 22.7184V45.0628C3.60938 46.6823 4.76597 48 6.1875 48H14.9786C15.367 48 15.6818 47.6852 15.6818 47.2969C15.6818 46.9086 15.367 46.5938 14.9786 46.5938H6.1875C5.48644 46.5938 5.01562 45.8021 5.01562 45.0628V22.7184C5.01562 22.4499 5.07778 22.1746 5.19037 21.9327C7.00791 23.1704 39.4122 45.2364 41.4054 46.5938H18.0222C17.6338 46.5938 17.3191 46.9086 17.3191 47.2969C17.3191 47.6852 17.6338 48 18.0222 48H41.8125C43.234 48 44.3906 46.6823 44.3906 45.0628V30.0229C44.3906 29.6346 44.0759 29.3197 43.6875 29.3197C43.2991 29.3197 42.9844 29.6346 42.9844 30.0229V45.0628C42.9844 45.3313 42.9222 45.6067 42.8096 45.8485L25.2492 33.8906C27.4145 32.4162 41.9425 22.5232 42.8096 21.9327C42.9223 22.1746 42.9844 22.4499 42.9844 22.7184V26.9531C42.9844 27.3414 43.2991 27.6562 43.6875 27.6562ZM9.23438 22.9852L6.59456 21.1875H9.23438V22.9852ZM38.7656 21.1875H41.4054L38.7656 22.9851V21.1875Z" fill="#EB5757"/>
<path d="M14.7188 35.5781H9.65625C9.01003 35.5781 8.48438 36.1038 8.48438 36.75V41.8125C8.48438 42.4587 9.01003 42.9844 9.65625 42.9844H14.7188C15.365 42.9844 15.8906 42.4587 15.8906 41.8125V36.75C15.8906 36.1038 15.365 35.5781 14.7188 35.5781ZM14.4844 41.5781H9.89062V36.9844H14.4844V41.5781Z" fill="#EB5757"/>
<path d="M24 26.7656C30.0816 26.7656 35.0156 21.8169 35.0156 15.75C35.0156 9.68503 30.0833 4.73438 24 4.73438C17.9175 4.73438 12.9844 9.684 12.9844 15.75C12.9844 21.815 17.9167 26.7656 24 26.7656ZM16.2538 10.0695C16.6297 10.2164 17.0381 10.3531 17.4765 10.4788C16.9673 11.8754 16.6664 13.4285 16.5988 15.047H14.4162C14.5507 13.1936 15.2134 11.4845 16.2538 10.0695ZM33.5839 15.0469H31.4013C31.3336 13.4284 31.0328 11.8753 30.5236 10.4788C30.9618 10.3532 31.3703 10.2164 31.7462 10.0695C32.7866 11.4845 33.4492 13.1936 33.5839 15.0469ZM31.7462 21.4305C31.3703 21.2836 30.9619 21.1469 30.5235 21.0212C31.0328 19.6246 31.3336 18.0715 31.4012 16.453H33.5838C33.4492 18.3064 32.7866 20.0155 31.7462 21.4305ZM22.8362 11.2838C23.2229 11.2994 23.6117 11.3072 24 11.3072C24.3882 11.3072 24.7769 11.2994 25.1638 11.2838C25.279 12.4533 25.3483 13.7303 25.3666 15.0469H22.6334C22.6517 13.7303 22.721 12.4533 22.8362 11.2838ZM25.3666 16.4531C25.3483 17.7698 25.279 19.0469 25.1638 20.2163C24.3911 20.1855 23.6101 20.1855 22.8362 20.2163C22.721 19.0469 22.6516 17.7698 22.6334 16.453H25.3666V16.4531ZM21.8438 23.1807C21.9853 23.8844 22.1428 24.4799 22.3188 24.9712C21.403 24.5387 20.5551 23.7532 19.8426 22.6585C19.705 22.4473 19.5747 22.2278 19.4516 22.0009C20.1302 21.8734 20.8481 21.7742 21.5957 21.7049C21.6684 22.2273 21.7513 22.7212 21.8438 23.1807ZM23.0038 21.6174C23.6663 21.5937 24.3346 21.5937 24.9962 21.6174C24.9553 21.9037 24.9112 22.1801 24.8642 22.4455C24.5574 24.1748 24.2002 24.9708 24 25.2603C23.7998 24.9708 23.4427 24.1748 23.1358 22.4455C23.0887 22.1801 23.0447 21.9037 23.0038 21.6174ZM26.1562 23.1807C26.2487 22.7213 26.3316 22.2273 26.4043 21.7049C27.1528 21.7744 27.8707 21.8735 28.5484 22.0008C28.4253 22.2278 28.2949 22.4472 28.1574 22.6584C27.4449 23.7531 26.597 24.5386 25.6812 24.9712C25.8572 24.4799 26.0147 23.8844 26.1562 23.1807ZM29.149 20.6857C28.3392 20.5197 27.4747 20.3931 26.5685 20.3077C26.6853 19.1086 26.755 17.8049 26.773 16.453H29.9937C29.9251 17.9648 29.6355 19.4058 29.149 20.6857ZM26.773 15.0469C26.755 13.6951 26.6853 12.3913 26.5685 11.1923C27.4733 11.1071 28.3381 10.9805 29.149 10.8143C29.6355 12.0942 29.9252 13.5352 29.9938 15.0469H26.773ZM26.4043 9.79509C26.3316 9.27272 26.2487 8.77875 26.1562 8.31928C26.0147 7.61559 25.8572 7.02009 25.6812 6.52875C26.597 6.96131 27.4449 7.74684 28.1574 8.84147C28.295 9.05269 28.4253 9.27216 28.5484 9.49912C27.8699 9.62672 27.1519 9.72581 26.4043 9.79509ZM24.9962 9.88256C24.3337 9.90628 23.6654 9.90628 23.0038 9.88256C23.0447 9.59634 23.0887 9.31988 23.1358 9.05447C23.4426 7.32516 23.7998 6.52922 24 6.23972C24.2002 6.52922 24.5573 7.32525 24.8642 9.05447C24.9112 9.31988 24.9553 9.59634 24.9962 9.88256ZM21.8438 8.31928C21.7513 8.77875 21.6684 9.27272 21.5957 9.79509C20.8472 9.72563 20.1292 9.62653 19.4516 9.49922C19.5747 9.27225 19.7051 9.05278 19.8426 8.84156C20.5551 7.74694 21.403 6.96141 22.3188 6.52884C22.1428 7.02009 21.9853 7.61559 21.8438 8.31928ZM18.851 10.8143C19.6608 10.9803 20.5253 11.1069 21.4315 11.1923C21.3147 12.3914 21.245 13.6951 21.227 15.047H18.0063C18.0749 13.5352 18.3645 12.0942 18.851 10.8143ZM21.227 16.4531C21.245 17.8049 21.3147 19.1087 21.4315 20.3077C20.5267 20.3929 19.6619 20.5195 18.851 20.6857C18.3645 19.4058 18.0748 17.9648 18.0062 16.4531H21.227ZM18.664 23.4257C18.7914 23.6214 18.923 23.8092 19.0583 23.9888C18.3946 23.5892 17.7828 23.1116 17.2358 22.569C17.4879 22.4833 17.7547 22.4018 18.0355 22.3249C18.2273 22.7092 18.4371 23.0769 18.664 23.4257ZM29.336 23.4257C29.5629 23.077 29.7727 22.7092 29.9645 22.3249C30.2453 22.4018 30.5122 22.4833 30.7643 22.569C30.2172 23.1117 29.6054 23.5893 28.9417 23.9888C29.077 23.8092 29.2086 23.6214 29.336 23.4257ZM29.9645 9.17522C29.7727 8.79084 29.5629 8.42306 29.336 8.07441C29.2086 7.87866 29.077 7.69088 28.9417 7.51125C29.6054 7.91091 30.2172 8.38847 30.7643 8.93109C30.5121 9.01678 30.2453 9.09825 29.9645 9.17522ZM18.664 8.07431C18.4371 8.42297 18.2273 8.79075 18.0355 9.17512C17.7547 9.09816 17.4878 9.01669 17.2358 8.931C17.7828 8.38828 18.3946 7.91072 19.0583 7.51116C18.923 7.69078 18.7914 7.87856 18.664 8.07431ZM16.5987 16.4531C16.6664 18.0716 16.9672 19.6247 17.4764 21.0212C17.0382 21.1468 16.6297 21.2836 16.2538 21.4305C15.2134 20.0155 14.5508 18.3064 14.4161 16.4531H16.5987Z" fill="#EB5757"/>
</svg>
