<svg width="48" height="48" viewBox="0 0 48 48" fill="none" xmlns="http://www.w3.org/2000/svg">
<g clip-path="url(#clip0)">
<path d="M31.1018 1.06837C28.8104 0.359438 26.421 0 24 0C17.5894 0 11.5625 2.49647 7.02947 7.02938C2.49647 11.5625 0 17.5894 0 24C0 34.3113 6.56016 43.4523 16.3239 46.746C16.3987 46.7712 16.4745 46.7831 16.5492 46.7831C16.8432 46.7831 17.1175 46.5977 17.2166 46.3037C17.3411 45.935 17.143 45.5353 16.7744 45.4109C7.58381 42.3106 1.40897 33.7062 1.40897 24C1.40897 17.9658 3.75891 12.2926 8.02575 8.02575C12.2926 3.75891 17.9658 1.40906 24 1.40906C26.2797 1.40906 28.529 1.74731 30.6854 2.41444C31.0575 2.52966 31.4517 2.32134 31.5667 1.94963C31.6817 1.57791 31.4736 1.18331 31.1018 1.06837Z" fill="white"/>
<path d="M44.1068 10.8906C41.6254 7.09204 38.141 4.08342 34.0303 2.18985C33.6768 2.02692 33.2584 2.1816 33.0957 2.53504C32.9329 2.88848 33.0874 3.30689 33.4408 3.46964C37.3106 5.2522 40.591 8.08476 42.9272 11.6612C45.3241 15.3303 46.591 19.5969 46.591 23.9997C46.591 30.0339 44.2411 35.707 39.9742 39.9739C35.7073 44.2407 30.0342 46.5905 23.9999 46.5905C22.5683 46.5905 21.1359 46.4558 19.7426 46.1901C19.3605 46.1167 18.9914 46.3679 18.9186 46.7502C18.8458 47.1324 19.0964 47.5014 19.4787 47.5742C20.9588 47.8564 22.48 47.9996 23.9999 47.9996C30.4106 47.9996 36.4375 45.5032 40.9706 40.9702C45.5035 36.4371 47.9999 30.4102 47.9999 23.9996C47.9999 19.3225 46.6537 14.7895 44.1068 10.8906Z" fill="white"/>
<path d="M22.64 27.96C22.64 27.304 22.744 26.728 22.952 26.232C23.176 25.736 23.448 25.312 23.768 24.96C24.088 24.608 24.504 24.208 25.016 23.76C25.704 23.152 26.208 22.624 26.528 22.176C26.864 21.712 27.032 21.152 27.032 20.496C27.032 19.616 26.688 18.912 26 18.384C25.312 17.84 24.368 17.568 23.168 17.568C21.184 17.568 19.656 18.216 18.584 19.512L17.312 18.552C18.672 16.888 20.664 16.056 23.288 16.056C24.968 16.056 26.304 16.432 27.296 17.184C28.304 17.936 28.808 18.952 28.808 20.232C28.808 20.888 28.696 21.472 28.472 21.984C28.264 22.48 28 22.904 27.68 23.256C27.376 23.608 26.968 24.016 26.456 24.48C25.768 25.104 25.256 25.664 24.92 26.16C24.584 26.64 24.416 27.24 24.416 27.96H22.64ZM23.528 33.12C23.176 33.12 22.88 33 22.64 32.76C22.4 32.504 22.28 32.208 22.28 31.872C22.28 31.52 22.4 31.232 22.64 31.008C22.88 30.768 23.176 30.648 23.528 30.648C23.896 30.648 24.2 30.768 24.44 31.008C24.68 31.232 24.8 31.52 24.8 31.872C24.8 32.208 24.672 32.504 24.416 32.76C24.176 33 23.88 33.12 23.528 33.12Z" fill="white"/>
</g>
<defs>
<clipPath id="clip0">
<rect width="48" height="48" fill="white"/>
</clipPath>
</defs>
</svg>
