<svg width="14" height="14" viewBox="0 0 14 14" fill="none" xmlns="http://www.w3.org/2000/svg">
<mask id="mask0" mask-type="alpha" maskUnits="userSpaceOnUse" x="0" y="2" width="14" height="10">
<path d="M7.00004 2.91699C4.08337 2.91699 1.59254 4.73116 0.583374 7.29199C1.59254 9.85283 4.08337 11.667 7.00004 11.667C9.91671 11.667 12.4075 9.85283 13.4167 7.29199C12.4075 4.73116 9.91671 2.91699 7.00004 2.91699ZM7.00004 10.2087C5.39004 10.2087 4.08337 8.90199 4.08337 7.29199C4.08337 5.68199 5.39004 4.37533 7.00004 4.37533C8.61004 4.37533 9.91671 5.68199 9.91671 7.29199C9.91671 8.90199 8.61004 10.2087 7.00004 10.2087ZM7.00004 5.54199C6.03171 5.54199 5.25004 6.32366 5.25004 7.29199C5.25004 8.26033 6.03171 9.04199 7.00004 9.04199C7.96837 9.04199 8.75004 8.26033 8.75004 7.29199C8.75004 6.32366 7.96837 5.54199 7.00004 5.54199Z" fill="black"/>
</mask>
<g mask="url(#mask0)">
<rect width="14" height="14" fill="#2D9CDB"/>
</g>
</svg>
