<svg width="24" height="24" viewBox="0 0 24 24" fill="none" xmlns="http://www.w3.org/2000/svg">
<path fill-rule="evenodd" clip-rule="evenodd" d="M18.9386 13.3553C19.5486 13.9278 20.1986 14.4663 20.7486 15.0968C20.9985 15.3689 21.2166 15.6687 21.3986 15.9903C21.4629 16.0777 21.5036 16.1802 21.5169 16.2879C21.5301 16.3957 21.5154 16.505 21.4743 16.6054C21.4331 16.7058 21.3668 16.7939 21.2818 16.8613C21.1967 16.9287 21.0958 16.9732 20.9886 16.9903H18.2936C17.9754 17.0146 17.6557 16.9674 17.3581 16.8522C17.0605 16.737 16.7924 16.5566 16.5736 16.3243C16.1986 15.9608 15.8535 15.5743 15.4935 15.1993C15.3508 15.0411 15.1878 14.9025 15.0086 14.7873C14.9404 14.7297 14.8597 14.6888 14.7729 14.6679C14.6861 14.647 14.5957 14.6467 14.5087 14.6669C14.4218 14.6872 14.3408 14.7275 14.2722 14.7846C14.2036 14.8417 14.1493 14.914 14.1136 14.9958C13.923 15.3669 13.8252 15.7786 13.8286 16.1958C13.7986 16.8023 13.6086 16.9618 12.9686 16.9898C11.6332 17.091 10.2961 16.8165 9.1086 16.1973C8.09032 15.6145 7.20612 14.8238 6.51357 13.8768C5.16448 12.0694 4.01765 10.1196 3.09358 8.06229C2.87858 7.60329 3.03355 7.35779 3.56355 7.34879C4.44355 7.33329 5.32357 7.33329 6.20857 7.34879C6.36956 7.34909 6.52643 7.39965 6.6573 7.49341C6.78817 7.58717 6.88649 7.71946 6.93855 7.8718C7.40835 8.99384 8.00923 10.0564 8.72859 11.0373C8.91034 11.3113 9.1388 11.5513 9.40358 11.7463C9.456 11.7983 9.52126 11.8355 9.59273 11.8541C9.6642 11.8727 9.73931 11.872 9.81044 11.8522C9.88157 11.8323 9.94615 11.794 9.99764 11.741C10.0491 11.6881 10.0857 11.6224 10.1036 11.5508C10.1921 11.3397 10.2445 11.1152 10.2586 10.8868C10.3411 10.1123 10.326 9.33051 10.2136 8.55979C10.1919 8.3355 10.0944 8.1253 9.93715 7.96393C9.77988 7.80257 9.57225 7.69969 9.34859 7.67228C9.09359 7.62578 9.12856 7.53379 9.25356 7.39329C9.34995 7.26573 9.47584 7.16342 9.62038 7.09507C9.76491 7.02672 9.92382 6.99438 10.0836 7.0008H13.1336C13.2262 7.00711 13.3166 7.03176 13.3996 7.07334C13.4825 7.11492 13.5564 7.17259 13.6169 7.24299C13.6774 7.31338 13.7233 7.39511 13.7519 7.4834C13.7805 7.5717 13.7913 7.66481 13.7836 7.7573V10.9898C13.7767 11.153 13.8127 11.3152 13.8882 11.46C13.9637 11.6049 14.0759 11.7274 14.2136 11.8153C14.332 11.8331 14.453 11.8157 14.5615 11.7651C14.67 11.7144 14.7612 11.633 14.8236 11.5308C15.5208 10.7832 16.1007 9.93418 16.5436 9.01279C16.7486 8.61529 16.9236 8.20178 17.0986 7.78928C17.1439 7.64611 17.2374 7.52305 17.3632 7.44102C17.489 7.35898 17.6393 7.32306 17.7886 7.3393H20.7186C20.8055 7.33708 20.8925 7.34227 20.9786 7.3548C21.4736 7.4348 21.6086 7.63829 21.4586 8.09879C21.1777 8.80258 20.7824 9.45506 20.2886 10.0298C19.8036 10.6758 19.2786 11.2993 18.7936 11.9498C18.3486 12.5433 18.3836 12.8423 18.9386 13.3578V13.3553Z" fill="#333333"/>
</svg>
