<svg width="24" height="24" viewBox="0 0 24 24" fill="none" xmlns="http://www.w3.org/2000/svg">
<path fill-rule="evenodd" clip-rule="evenodd" d="M17.1951 8.08621C17.1838 8.07879 17.1737 8.06968 17.1651 8.0592C16.8661 7.78653 16.5158 7.57602 16.1347 7.43988C15.7536 7.30375 15.3493 7.2447 14.9451 7.2662L14.9151 7.20822C14.921 7.20424 14.9281 7.20247 14.9351 7.20322C15.7051 7.03572 16.1601 6.8627 16.3001 6.6752C16.3146 6.64654 16.3211 6.61449 16.3187 6.58246C16.3164 6.55043 16.3054 6.51966 16.2869 6.49341C16.2684 6.46716 16.2431 6.44642 16.2137 6.43344C16.1843 6.42046 16.152 6.41571 16.1201 6.41971C15.7566 6.45872 15.3991 6.54096 15.0551 6.6647C15.4601 6.4197 15.6151 6.24723 15.5251 6.15723C15.0445 6.20208 14.5932 6.40866 14.2451 6.74323C14.363 6.62524 14.431 6.46645 14.4351 6.29971C14.2307 6.43206 14.0398 6.58413 13.8651 6.75372C13.567 7.06595 13.2929 7.40023 13.0451 7.75372L13.0302 7.77972C12.5179 8.5525 12.133 9.40246 11.8901 10.2972L11.8051 10.3607L11.7901 10.3762C11.4582 9.98204 11.0565 9.65237 10.6051 9.40372C9.9846 9.0288 9.33599 8.70248 8.6651 8.4277C7.86689 8.03637 7.03941 7.70789 6.19012 7.44522C6.19431 7.8882 6.32438 8.32085 6.56519 8.69269C6.80599 9.06452 7.14759 9.36021 7.55011 9.54523V9.5607C7.23521 9.55615 6.92151 9.60035 6.62012 9.69171C6.68012 10.5117 7.29348 11.0776 8.46014 11.3892L8.45514 11.4047C8.24577 11.3873 8.03516 11.4178 7.83936 11.4939C7.64355 11.5701 7.46769 11.6899 7.32513 11.8442C7.52577 12.1987 7.82743 12.4853 8.19165 12.6676C8.55587 12.8499 8.96614 12.9196 9.37012 12.8677C9.20083 12.9416 9.04786 13.0483 8.9201 13.1817C8.83624 13.26 8.77556 13.3599 8.74469 13.4704C8.71382 13.5809 8.71397 13.6978 8.74512 13.8082C8.86649 13.9941 9.0395 14.1404 9.24292 14.2292C9.44634 14.318 9.67132 14.3455 9.89014 14.3082L9.9201 14.3452L9.90515 14.3602C9.4537 14.8159 8.90729 15.1664 8.30493 15.3869C7.70258 15.6073 7.05904 15.6923 6.4201 15.6357L6.40015 15.6462C5.40755 15.5747 4.46669 15.1758 3.7251 14.5122C4.68991 15.8248 6.02301 16.8212 7.55511 17.3747C9.31961 17.9433 11.2113 17.9869 13.0001 17.5002H13.0302C14.7995 17.0127 16.3683 15.9756 17.5101 14.5387C18.0223 13.875 18.3855 13.1088 18.5751 12.2922C18.943 12.341 19.3171 12.298 19.6643 12.1672C20.0115 12.0363 20.321 11.8216 20.5651 11.5422L20.5551 11.5252C19.9583 11.6222 19.3475 11.5881 18.7651 11.4252V11.3302C18.7651 11.3257 18.7651 11.3257 18.7701 11.3302C19.7401 11.2262 20.3151 10.9302 20.5001 10.4372C19.8546 10.6864 19.1407 10.6938 18.4901 10.4582C18.3446 9.54198 17.8872 8.70408 17.1951 8.08621Z" fill="#333333"/>
</svg>
