<svg width="24" height="24" viewBox="0 0 24 24" fill="none" xmlns="http://www.w3.org/2000/svg">
<path d="M6.05456 4H17.9477C19.0776 4 20.0013 4.92402 20.0013 6.05392V17.947C20.0013 19.0766 19.0776 20 17.9477 20H6.05456C4.92466 20 4 19.0766 4 17.947V6.05392C4 4.92402 4.92466 4 6.05456 4ZM15.6567 5.77705C15.26 5.77705 14.9364 6.10193 14.9364 6.49844V8.22199C14.9364 8.61866 15.26 8.94279 15.6567 8.94279H17.465C17.8611 8.94279 18.1854 8.61866 18.1854 8.22199V6.49844C18.1854 6.10193 17.8611 5.77705 17.465 5.77705H15.6567ZM18.1923 10.7662H16.7844C16.9179 11.2022 16.9903 11.6621 16.9903 12.1401C16.9903 14.8007 14.7626 16.9586 12.0157 16.9586C9.26949 16.9586 7.04174 14.8007 7.04174 12.1401C7.04174 11.6621 7.11481 11.2022 7.24767 10.7662H5.77881V17.5258C5.77881 17.8758 6.06464 18.1606 6.41438 18.1606H17.557C17.907 18.1606 18.1923 17.8758 18.1923 17.5258V10.7662ZM12.0157 8.85191C10.2417 8.85191 8.80268 10.2455 8.80268 11.9662C8.80268 13.6851 10.2417 15.0798 12.0157 15.0798C13.7907 15.0798 15.2298 13.6851 15.2298 11.9662C15.2298 10.2455 13.7907 8.85191 12.0157 8.85191Z" fill="#333333"/>
</svg>
