<svg width="24" height="24" viewBox="0 0 24 24" fill="none" xmlns="http://www.w3.org/2000/svg">
<circle cx="12" cy="12" r="11.5" stroke="white"/>
<path d="M11.123 13.3485C11.123 12.8875 11.2276 12.5095 11.4367 12.2144C11.6459 11.9101 11.9501 11.5781 12.3494 11.2185C12.6251 10.9696 12.8295 10.7621 12.9626 10.5961C13.0957 10.4209 13.1622 10.2365 13.1622 10.0429C13.1622 9.77547 13.0434 9.56339 12.8057 9.40664C12.5775 9.24066 12.2781 9.15768 11.9073 9.15768C11.527 9.15768 11.18 9.24527 10.8663 9.42047C10.5621 9.59567 10.3149 9.84002 10.1248 10.1535L8 9.04703C8.38978 8.40157 8.94118 7.89903 9.65419 7.53942C10.3672 7.17981 11.2276 7 12.2353 7C13.3666 7 14.2745 7.23052 14.959 7.69156C15.653 8.14338 16 8.77962 16 9.60028C16 9.97833 15.9335 10.3149 15.8004 10.61C15.6673 10.8958 15.5056 11.1402 15.3155 11.343C15.1349 11.5367 14.8972 11.758 14.6025 12.0069C14.2793 12.2743 14.0416 12.5048 13.8895 12.6985C13.7374 12.8829 13.6613 13.0996 13.6613 13.3485H11.123ZM12.3922 17C11.9263 17 11.5413 16.8617 11.2371 16.5851C10.9329 16.2992 10.7807 15.9534 10.7807 15.5477C10.7807 15.1328 10.9281 14.7916 11.2228 14.5242C11.527 14.2568 11.9168 14.1231 12.3922 14.1231C12.8675 14.1231 13.2573 14.2568 13.5615 14.5242C13.8657 14.7916 14.0178 15.1328 14.0178 15.5477C14.0178 15.9534 13.8657 16.2992 13.5615 16.5851C13.2573 16.8617 12.8675 17 12.3922 17Z" fill="white"/>
</svg>
