<svg width="16" height="16" viewBox="0 0 16 16" fill="none" xmlns="http://www.w3.org/2000/svg">
<path d="M13.5184 13.6663H2.48136V5.99977H13.5184V13.6663ZM10.963 1V2.33333H5.03708V1H3.5556V2.33333H2.48136C1.65914 2.33333 0.999878 2.92667 0.999878 3.66667V13.6663C0.999878 14.0199 1.15596 14.359 1.43379 14.6091C1.71163 14.8591 2.08845 14.9996 2.48136 14.9996H13.5184C13.9113 14.9996 14.2881 14.8591 14.566 14.6091C14.8438 14.359 14.9999 14.0199 14.9999 13.6663V3.66667C14.9999 2.92667 14.3332 2.33333 13.5184 2.33333H12.4445V1H10.963ZM11.7037 8.66643H8.00004V11.9998H11.7037V8.66643Z" fill="#2D9CDB"/>
</svg>
