<svg width="16" height="16" viewBox="0 0 16 16" fill="none" xmlns="http://www.w3.org/2000/svg">
<path d="M5.66659 15C5.48977 15 5.32021 14.9298 5.19518 14.8047C5.07016 14.6797 4.99992 14.5101 4.99992 14.3333L4.99992 13H2.33309C1.97947 13 1.64033 12.8595 1.39028 12.6095C1.14023 12.3594 0.999756 12.0203 0.999756 11.6667L0.999916 2.33333C0.999916 1.59333 1.59992 1 2.33325 1H13.6666C14.0202 1 14.3593 1.14048 14.6094 1.39052C14.8594 1.64057 14.9999 1.97971 14.9999 2.33333L14.9998 11.6667C14.9998 12.0203 14.8593 12.3594 14.6092 12.6095C14.3592 12.8595 14.02 13 13.6664 13H9.26626L5.99992 15H5.66659Z" fill="#2D9CDB"/>
</svg>
