<svg width="173" height="59" viewBox="0 0 173 59" fill="none" xmlns="http://www.w3.org/2000/svg">
<g clip-path="url(#clip0)">
<path d="M51.947 25.2863C52.378 25.9453 52.348 26.8053 52.436 27.5803C52.406 29.2163 52.55 31.1673 52.262 32.8323C52.118 33.5203 51.659 34.2393 50.942 34.4963C49.794 35.0143 48.244 34.8703 47.183 34.2673C46.292 33.6363 46.179 32.5723 46.063 31.5693C45.977 29.5893 45.833 27.4933 46.378 25.6853C46.808 24.5663 47.986 24.2793 49.047 24.1943C50.167 24.1953 51.258 24.3673 51.947 25.2863Z" fill="#022899"/>
<path d="M36.878 50.397C36.965 50.569 36.736 50.513 36.678 50.569C33.635 51.23 30.25 51.26 27.206 50.513C27.15 50.368 27.35 50.34 27.437 50.253C30.106 48.503 34.269 48.503 36.878 50.397ZM26.604 49.736C26.461 49.91 26.231 50.081 26.031 50.195C23.62 49.563 21.38 48.473 19.314 46.98V46.897C20.004 46.464 20.691 46.006 21.439 45.69C23.073 47.326 24.767 48.559 26.604 49.736ZM44.8 46.897C43.192 48.187 41.327 49.048 39.434 49.766L38.084 50.195C37.855 50.081 37.654 49.91 37.453 49.736L37.51 49.65C39.346 48.559 41.01 47.241 42.591 45.661C43.364 45.978 44.111 46.408 44.8 46.897ZM41.729 45.26C40.811 46.321 39.634 47.24 38.543 48.015C37.883 48.416 37.223 48.847 36.533 49.19L35.3 48.647L35.385 48.443C36.42 47.04 37.337 45.603 38.141 44.084L38.227 44.025C39.462 44.313 40.639 44.714 41.729 45.26ZM25.944 44.055C26.776 45.632 27.809 47.124 28.843 48.618C28.44 48.847 27.953 48.99 27.552 49.22C25.656 48.272 23.849 46.952 22.327 45.374V45.287C23.447 44.742 24.624 44.34 25.829 44.024L25.944 44.055ZM37.281 43.796L37.309 43.882C36.506 45.431 35.501 46.925 34.411 48.33C33.922 48.387 33.463 48.186 32.976 48.159L32.487 48.099C32.43 46.407 32.401 44.914 32.487 43.221C34.123 43.252 35.76 43.423 37.281 43.796ZM31.628 48.071C31.024 48.216 30.365 48.216 29.791 48.36C28.614 46.953 27.638 45.431 26.806 43.853L26.948 43.737C28.44 43.45 29.99 43.222 31.598 43.222L31.628 48.071ZM25.6 41.472C25.313 41.472 24.997 41.413 24.797 41.5L25.514 43.192L25.428 43.277C24.136 43.652 22.874 44.112 21.639 44.628L21.523 44.569C20.72 43.68 19.945 42.705 19.314 41.729C19.17 41.242 18.597 41.527 18.279 41.471C18.969 42.734 19.888 43.852 20.807 44.999C20.031 45.458 19.257 45.977 18.453 46.349C16.732 45.028 15.122 43.307 13.919 41.499C13.572 41.441 13.343 41.471 13 41.499C15.066 44.77 18.278 47.64 21.638 49.333L21.666 49.306L21.696 49.392C23.963 50.512 26.374 51.314 28.926 51.659C37.738 52.836 46.148 49.019 51.026 41.5C50.768 41.472 50.395 41.472 50.108 41.5C48.903 43.252 47.381 44.942 45.716 46.266L45.429 46.236C44.712 45.777 43.937 45.403 43.248 44.943C44.167 43.825 45.057 42.706 45.746 41.472H44.856C44.138 42.534 43.392 43.653 42.445 44.6C41.182 44.083 40.034 43.624 38.743 43.278L38.6 43.166C38.803 42.591 39.175 42.046 39.289 41.473H38.515L37.739 43.022C36.047 42.647 34.181 42.448 32.459 42.334C32.372 42.076 32.488 41.702 32.372 41.474H31.628C31.568 41.817 31.712 42.077 31.541 42.364C29.761 42.449 28.04 42.648 26.375 42.996L25.6 41.472ZM7.404 19.43L5.625 19.457C5.596 20.98 5.596 22.758 5.625 24.308C6.6 24.338 7.519 24.308 8.467 24.396V34.153L8.438 34.555L5.596 34.612C5.538 36.219 5.538 37.77 5.596 39.347H18.254V34.612C17.305 34.555 16.244 34.639 15.325 34.526L15.355 24.452L15.411 24.367L18.253 24.338C18.279 22.702 18.309 20.952 18.223 19.457L7.404 19.43ZM56.166 21.152C52.437 18.74 46.752 18.569 42.907 20.751C40.812 21.842 39.435 23.994 39.004 26.202C38.229 29.849 38.429 34.181 41.185 36.908C44.399 39.778 49.078 40.409 53.24 39.233C53.436 39.192 54.065 39.031 54.494 38.797L54.616 38.744C55.907 38.199 57.143 37.309 58.06 36.104C60.185 32.946 60.327 28.21 59.037 24.654C58.518 23.277 57.456 22.042 56.166 21.152ZM31.828 20.233C28.671 18.885 24.252 18.74 21.38 20.836C19.515 22.214 18.941 24.681 19.43 26.863C19.802 28.929 21.754 30.453 23.62 31.168C26.175 32.086 28.843 32.746 31.427 33.638C31.685 33.751 32.029 34.009 31.972 34.325C31.972 34.584 31.713 34.729 31.513 34.844C28.816 35.588 25.888 35.016 23.935 32.948C23.705 32.661 23.561 32.316 23.333 32.03L19.458 32.059C19.4 34.384 19.371 37.052 19.458 39.348L23.762 39.319L23.82 37.941C24.309 38.171 24.797 38.461 25.284 38.718C28.268 39.981 32.114 40.267 35.072 38.718C37.223 37.512 38.371 35.187 38.056 32.69C37.739 30.251 35.444 28.04 33.118 27.439L26.175 25.4L25.656 25.142C25.427 24.94 25.284 24.683 25.342 24.368C25.887 23.42 27.15 23.707 28.097 23.737C30.106 24.022 32.172 24.712 33.35 26.577C34.612 26.577 36.075 26.605 37.453 26.549C37.51 24.195 37.425 22.127 37.395 19.746C36.103 19.717 34.524 19.717 33.234 19.775C33.174 20.118 33.29 20.608 33.148 20.953L31.828 20.233ZM34.153 10.475C35.272 11.91 36.362 13.374 37.108 14.952C35.56 15.326 33.982 15.527 32.372 15.527C32.315 14.006 32.344 12.311 32.372 10.734C32.947 10.647 33.578 10.562 34.153 10.475ZM31.456 10.705C31.541 12.197 31.483 13.919 31.483 15.497C30.68 15.612 29.962 15.468 29.16 15.411C28.385 15.297 27.408 15.21 26.635 14.952C27.467 13.375 28.441 11.854 29.619 10.447L31.456 10.705ZM28.671 10.16L28.585 10.39C27.494 11.766 26.635 13.259 25.772 14.722L25.656 14.75C24.481 14.435 23.332 14.061 22.242 13.575L22.299 13.403C23.879 11.88 25.544 10.617 27.379 9.643C27.809 9.815 28.24 9.959 28.671 10.16ZM41.585 13.431L41.528 13.518C40.409 14.006 39.26 14.466 38.027 14.723C37.137 13.202 36.163 11.681 35.072 10.218C35.472 9.988 35.96 9.816 36.391 9.587C38.256 10.533 40.065 11.88 41.585 13.431ZM26.518 9.097C24.74 10.217 22.989 11.536 21.38 13.144C20.607 12.856 19.889 12.426 19.198 11.938V11.88C21.008 10.532 23.016 9.527 25.14 8.839L25.4 8.667V8.725C25.629 8.782 25.802 8.524 26.003 8.696C26.175 8.84 26.375 8.954 26.518 9.097ZM44.6 11.824L44.542 11.939L42.561 13.058H42.419C40.897 11.508 39.117 10.161 37.31 9.098C37.368 8.897 37.655 8.754 37.855 8.611C40.266 9.241 42.532 10.333 44.6 11.824ZM36.706 8.323V8.38C34.209 10.216 30.164 10.39 27.523 8.695C27.378 8.581 27.093 8.523 27.064 8.322C30.106 7.605 33.694 7.547 36.706 8.323ZM33.75 7.032C32.977 6.945 32.028 6.916 31.197 7.002C30.882 6.974 30.509 7.002 30.134 7.032C23.245 7.576 16.905 11.164 12.942 17.278C13.23 17.248 13.573 17.363 13.861 17.248C14.551 16.272 15.324 15.326 16.186 14.407C16.933 13.689 17.621 13 18.425 12.485C19.17 12.973 20.005 13.375 20.72 13.834C19.829 14.952 18.913 16.072 18.253 17.278C18.454 17.363 18.826 17.334 19.114 17.278C19.829 16.216 20.606 15.153 21.523 14.207C22.758 14.666 23.963 15.153 25.227 15.498L25.342 15.613L24.625 17.279C24.94 17.335 25.141 17.305 25.456 17.279C25.716 16.79 25.915 16.244 26.203 15.758C27.868 16.131 29.619 16.332 31.397 16.389C31.628 16.59 31.456 17.02 31.541 17.279H32.315C32.401 16.99 32.287 16.675 32.401 16.418C34.066 16.332 35.816 16.159 37.425 15.758L37.567 15.785L38.343 17.279C38.6 17.279 38.945 17.335 39.147 17.221L38.428 15.556L38.486 15.498C39.806 15.153 41.04 14.637 42.302 14.12C43.192 15.068 44.024 16.187 44.771 17.279C45.085 17.279 45.402 17.305 45.633 17.221C45.289 16.59 44.858 15.958 44.398 15.412C44.024 14.867 43.623 14.379 43.134 13.862V13.719L45.143 12.543L45.43 12.428C47.181 13.778 48.732 15.412 49.964 17.221C50.308 17.221 50.597 17.335 50.884 17.192C47.038 11.338 40.696 7.577 33.836 7.033L33.808 7.091L33.75 7.032ZM64 58.833H0V0H64V58.833Z" fill="#022899"/>
<path d="M71.8049 7.16699V55.167" stroke="#022899"/>
<path d="M78.7881 10.7969H79.9281V19.3599H78.7881V10.7969Z" fill="#022899"/>
<path d="M81.68 13.1606H82.64V14.1436H82.664C83.096 13.3756 83.791 13.0156 84.679 13.0156C86.31 13.0156 86.814 13.9516 86.814 15.2826V19.3606H85.794V15.1636C85.794 14.4076 85.315 13.9156 84.535 13.9156C83.299 13.9156 82.699 14.7436 82.699 15.8586V19.3606H81.679V13.1606H81.68Z" fill="#022899"/>
<path d="M89.7681 13.1608H91.0021V14.0598H89.7681V17.9098C89.7681 18.3778 89.9001 18.4618 90.5361 18.4618H91.0031V19.3608H90.2241C89.1691 19.3608 88.7491 19.1448 88.7491 18.0058V14.0598H87.6931V13.1608H88.7491V11.3018H89.7691V13.1608H89.7681Z" fill="#022899"/>
<path d="M97.4211 17.3936C97.1451 18.7606 96.1621 19.5036 94.7711 19.5036C92.7921 19.5036 91.8561 18.1366 91.7961 16.2416C91.7961 14.3826 93.0201 13.0146 94.7111 13.0146C96.9051 13.0146 97.5761 15.0656 97.5181 16.5646H92.8751C92.8401 17.6446 93.4511 18.6036 94.8071 18.6036C95.6471 18.6036 96.2341 18.1966 96.4141 17.3926H97.4211V17.3936ZM96.4381 15.6666C96.3901 14.6956 95.6591 13.9156 94.6511 13.9156C93.5841 13.9156 92.9481 14.7196 92.8761 15.6666H96.4381Z" fill="#022899"/>
<path d="M98.5391 13.1605H99.4991V14.4675H99.5231C100.014 13.4725 100.698 12.9805 101.801 13.0165V14.0965C100.158 14.0965 99.5591 15.0315 99.5591 16.6025V19.3615H98.5381L98.5391 13.1605Z" fill="#022899"/>
<path d="M102.787 13.1606H103.746V14.1436H103.77C104.202 13.3756 104.898 13.0156 105.785 13.0156C107.417 13.0156 107.92 13.9516 107.92 15.2826V19.3606H106.9V15.1636C106.9 14.4076 106.421 13.9156 105.641 13.9156C104.406 13.9156 103.806 14.7436 103.806 15.8586V19.3606H102.786V13.1606H102.787Z" fill="#022899"/>
<path d="M114.952 19.3356C114.772 19.4436 114.544 19.5036 114.221 19.5036C113.693 19.5036 113.357 19.2166 113.357 18.5446C112.794 19.2036 112.038 19.5036 111.174 19.5036C110.047 19.5036 109.123 19.0006 109.123 17.7656C109.123 16.3626 110.167 16.0626 111.222 15.8586C112.35 15.6426 113.309 15.7136 113.309 14.9466C113.309 14.0596 112.578 13.9156 111.93 13.9156C111.067 13.9156 110.431 14.1796 110.383 15.0916H109.363C109.423 13.5566 110.61 13.0166 111.989 13.0166C113.105 13.0166 114.316 13.2686 114.316 14.7196V17.9096C114.316 18.3886 114.316 18.6046 114.64 18.6046C114.723 18.6046 114.82 18.5926 114.952 18.5446V19.3356ZM113.297 16.1586C112.901 16.4466 112.134 16.4586 111.45 16.5786C110.778 16.6986 110.202 16.9376 110.202 17.6936C110.202 18.3656 110.778 18.6046 111.402 18.6046C112.745 18.6046 113.297 17.7656 113.297 17.2016V16.1586Z" fill="#022899"/>
<path d="M117.318 13.1608H118.553V14.0598H117.318V17.9098C117.318 18.3778 117.45 18.4618 118.086 18.4618H118.554V19.3608H117.775C116.719 19.3608 116.299 19.1448 116.299 18.0058V14.0598H115.244V13.1608H116.299V11.3018H117.319L117.318 13.1608Z" fill="#022899"/>
<path d="M120.763 12.0439H119.743V10.7969H120.763V12.0439ZM119.743 13.1609H120.763V19.3609H119.743V13.1609Z" fill="#022899"/>
<path d="M125.022 13.0156C126.989 13.0156 128.032 14.4436 128.032 16.2656C128.032 18.0776 126.989 19.5036 125.022 19.5036C123.055 19.5036 122.011 18.0766 122.011 16.2656C122.012 14.4436 123.056 13.0156 125.022 13.0156ZM125.022 18.6046C126.089 18.6046 126.953 17.7656 126.953 16.2656C126.953 14.7546 126.09 13.9146 125.022 13.9146C123.954 13.9146 123.09 14.7546 123.09 16.2656C123.091 17.7656 123.955 18.6046 125.022 18.6046Z" fill="#022899"/>
<path d="M129.235 13.1606H130.195V14.1436H130.218C130.65 13.3756 131.345 13.0156 132.233 13.0156C133.865 13.0156 134.368 13.9516 134.368 15.2826V19.3606H133.348V15.1636C133.348 14.4076 132.869 13.9156 132.089 13.9156C130.854 13.9156 130.254 14.7436 130.254 15.8586V19.3606H129.234V13.1606H129.235Z" fill="#022899"/>
<path d="M141.4 19.3356C141.22 19.4436 140.992 19.5036 140.669 19.5036C140.141 19.5036 139.805 19.2166 139.805 18.5446C139.242 19.2036 138.486 19.5036 137.622 19.5036C136.495 19.5036 135.571 19.0006 135.571 17.7656C135.571 16.3626 136.615 16.0626 137.67 15.8586C138.798 15.6426 139.757 15.7136 139.757 14.9466C139.757 14.0596 139.026 13.9156 138.378 13.9156C137.515 13.9156 136.879 14.1796 136.831 15.0916H135.811C135.871 13.5566 137.058 13.0166 138.437 13.0166C139.552 13.0166 140.764 13.2686 140.764 14.7196V17.9096C140.764 18.3886 140.764 18.6046 141.087 18.6046C141.171 18.6046 141.268 18.5926 141.4 18.5446V19.3356ZM139.745 16.1586C139.349 16.4466 138.582 16.4586 137.898 16.5786C137.226 16.6986 136.65 16.9376 136.65 17.6936C136.65 18.3656 137.226 18.6046 137.85 18.6046C139.193 18.6046 139.745 17.7656 139.745 17.2016V16.1586Z" fill="#022899"/>
<path d="M142.41 10.7969H143.43V19.3599H142.41V10.7969Z" fill="#022899"/>
<path d="M82.362 26.5928C85.084 26.5928 86.464 28.7518 86.464 31.0788C86.464 33.4048 85.084 35.5638 82.362 35.5638C79.639 35.5638 78.26 33.4048 78.26 31.0788C78.26 28.7518 79.64 26.5928 82.362 26.5928ZM82.362 34.6048C84.449 34.6048 85.324 32.8058 85.324 31.0798C85.324 29.3518 84.449 27.5538 82.362 27.5538C80.275 27.5538 79.4 29.3518 79.4 31.0798C79.4 32.8058 80.275 34.6048 82.362 34.6048Z" fill="#022899"/>
<path d="M87.656 29.1605H88.615V30.4675H88.639C89.131 29.4725 89.815 28.9805 90.917 29.0165V30.0965C89.274 30.0965 88.675 31.0315 88.675 32.6025V35.3615H87.655V29.1605H87.656Z" fill="#022899"/>
<path d="M96.7011 34.8326C96.7011 36.8476 95.7781 37.8786 93.8231 37.8786C92.6601 37.8786 91.3161 37.4106 91.2571 36.0556H92.2761C92.3251 36.7996 93.2121 37.0636 93.8831 37.0636C95.2151 37.0636 95.7421 36.1036 95.7421 34.7126V34.3046H95.7191C95.3831 35.0606 94.5671 35.4326 93.7871 35.4326C91.9401 35.4326 91.0161 33.9816 91.0161 32.2896C91.0161 30.8266 91.7361 29.0156 93.8821 29.0156C94.6611 29.0156 95.3581 29.3636 95.7301 30.0466H95.7421V29.1596H96.7011V34.8326ZM95.6941 32.1336C95.6941 31.0426 95.2151 29.9146 93.9311 29.9146C92.6231 29.9146 92.0951 30.9816 92.0951 32.1696C92.0951 33.2846 92.5031 34.5326 93.8471 34.5326C95.1901 34.5336 95.6941 33.2976 95.6941 32.1336Z" fill="#022899"/>
<path d="M103.733 35.3356C103.553 35.4436 103.325 35.5036 103.002 35.5036C102.474 35.5036 102.138 35.2166 102.138 34.5446C101.575 35.2036 100.819 35.5036 99.9551 35.5036C98.8281 35.5036 97.9041 35.0006 97.9041 33.7656C97.9041 32.3626 98.9481 32.0626 100.003 31.8586C101.131 31.6426 102.09 31.7136 102.09 30.9466C102.09 30.0596 101.359 29.9156 100.711 29.9156C99.8481 29.9156 99.2121 30.1796 99.1641 31.0916H98.1441C98.2041 29.5566 99.3911 29.0166 100.77 29.0166C101.886 29.0166 103.097 29.2686 103.097 30.7196V33.9096C103.097 34.3886 103.097 34.6046 103.421 34.6046C103.504 34.6046 103.601 34.5926 103.733 34.5446V35.3356ZM102.078 32.1586C101.682 32.4466 100.915 32.4586 100.231 32.5786C99.5591 32.6986 98.9831 32.9376 98.9831 33.6936C98.9831 34.3656 99.5591 34.6046 100.183 34.6046C101.526 34.6046 102.078 33.7656 102.078 33.2016V32.1586Z" fill="#022899"/>
<path d="M104.684 29.1606H105.643V30.1436H105.667C106.099 29.3756 106.795 29.0156 107.682 29.0156C109.314 29.0156 109.817 29.9516 109.817 31.2826V35.3606H108.797V31.1636C108.797 30.4076 108.318 29.9156 107.538 29.9156C106.303 29.9156 105.703 30.7436 105.703 31.8586V35.3606H104.683V29.1606H104.684Z" fill="#022899"/>
<path d="M112.435 28.0439H111.415V26.7969H112.435V28.0439ZM111.415 29.1609H112.435V35.3609H111.415V29.1609Z" fill="#022899"/>
<path d="M113.516 34.5821L117.258 30.0611H113.756V29.1621H118.577V29.8571L114.787 34.4621H118.745V35.3611H113.516V34.5821Z" fill="#022899"/>
<path d="M125.272 35.3356C125.092 35.4436 124.864 35.5036 124.541 35.5036C124.013 35.5036 123.677 35.2166 123.677 34.5446C123.114 35.2036 122.358 35.5036 121.494 35.5036C120.367 35.5036 119.443 35.0006 119.443 33.7656C119.443 32.3626 120.487 32.0626 121.542 31.8586C122.67 31.6426 123.629 31.7136 123.629 30.9466C123.629 30.0596 122.898 29.9156 122.25 29.9156C121.387 29.9156 120.751 30.1796 120.703 31.0916H119.683C119.743 29.5566 120.93 29.0166 122.309 29.0166C123.425 29.0166 124.636 29.2686 124.636 30.7196V33.9096C124.636 34.3886 124.636 34.6046 124.96 34.6046C125.043 34.6046 125.14 34.5926 125.272 34.5446V35.3356ZM123.617 32.1586C123.221 32.4466 122.454 32.4586 121.77 32.5786C121.098 32.6986 120.522 32.9376 120.522 33.6936C120.522 34.3656 121.098 34.6046 121.722 34.6046C123.065 34.6046 123.617 33.7656 123.617 33.2016V32.1586Z" fill="#022899"/>
<path d="M127.638 29.1608H128.873V30.0598H127.638V33.9098C127.638 34.3778 127.77 34.4618 128.406 34.4618H128.874V35.3608H128.095C127.039 35.3608 126.619 35.1448 126.619 34.0058V30.0598H125.564V29.1608H126.619V27.3018H127.639V29.1608H127.638Z" fill="#022899"/>
<path d="M131.082 28.0439H130.062V26.7969H131.082V28.0439ZM130.063 29.1609H131.083V35.3609H130.063V29.1609Z" fill="#022899"/>
<path d="M135.342 29.0156C137.309 29.0156 138.352 30.4436 138.352 32.2656C138.352 34.0776 137.309 35.5036 135.342 35.5036C133.375 35.5036 132.331 34.0766 132.331 32.2656C132.331 30.4436 133.375 29.0156 135.342 29.0156ZM135.342 34.6046C136.409 34.6046 137.273 33.7656 137.273 32.2656C137.273 30.7546 136.41 29.9146 135.342 29.9146C134.274 29.9146 133.41 30.7546 133.41 32.2656C133.41 33.7656 134.274 34.6046 135.342 34.6046Z" fill="#022899"/>
<path d="M139.555 29.1606H140.514V30.1436H140.538C140.97 29.3756 141.666 29.0156 142.553 29.0156C144.185 29.0156 144.688 29.9516 144.688 31.2826V35.3606H143.668V31.1636C143.668 30.4076 143.189 29.9156 142.409 29.9156C141.174 29.9156 140.574 30.7436 140.574 31.8586V35.3606H139.554V29.1606H139.555Z" fill="#022899"/>
<path d="M149.982 30.0601H148.938V29.1611H149.982V28.2371C149.982 27.2291 150.582 26.7021 151.697 26.7021C151.889 26.7021 152.165 26.7381 152.357 26.7981V27.6861C152.176 27.6261 151.961 27.6021 151.781 27.6021C151.289 27.6021 151.002 27.7581 151.002 28.2971V29.1611H152.201V30.0601H151.002V35.3611H149.982V30.0601Z" fill="#022899"/>
<path d="M155.789 29.0156C157.756 29.0156 158.799 30.4436 158.799 32.2656C158.799 34.0776 157.756 35.5036 155.789 35.5036C153.822 35.5036 152.778 34.0766 152.778 32.2656C152.778 30.4436 153.822 29.0156 155.789 29.0156ZM155.789 34.6046C156.856 34.6046 157.72 33.7656 157.72 32.2656C157.72 30.7546 156.857 29.9146 155.789 29.9146C154.721 29.9146 153.857 30.7546 153.857 32.2656C153.857 33.7656 154.722 34.6046 155.789 34.6046Z" fill="#022899"/>
<path d="M159.966 29.1605H160.926V30.4675H160.949C161.441 29.4725 162.125 28.9805 163.228 29.0165V30.0965C161.584 30.0965 160.985 31.0315 160.985 32.6025V35.3615H159.965V29.1605H159.966Z" fill="#022899"/>
<path d="M83.693 45.3038C83.561 44.0798 82.746 43.5528 81.57 43.5528C80.611 43.5528 79.652 43.9008 79.652 45.0158C79.652 46.0718 81.019 46.2278 82.399 46.5388C83.766 46.8508 85.133 47.3308 85.133 49.0098C85.133 50.8328 83.346 51.5648 81.787 51.5648C79.868 51.5648 78.248 50.6288 78.248 48.5428H79.327C79.327 49.9818 80.527 50.6058 81.822 50.6058C82.853 50.6058 83.993 50.2828 83.993 49.0468C83.993 47.8708 82.626 47.6668 81.259 47.3668C79.892 47.0668 78.512 46.6718 78.512 45.0998C78.512 43.3608 80.059 42.5928 81.619 42.5928C83.369 42.5928 84.701 43.4208 84.773 45.3038H83.693Z" fill="#022899"/>
<path d="M87.764 45.1608H88.998V46.0598H87.764V49.9098C87.764 50.3778 87.896 50.4618 88.532 50.4618H88.999V51.3608H88.22C87.165 51.3608 86.745 51.1448 86.745 50.0058V46.0598H85.689V45.1608H86.745V43.3018H87.765V45.1608H87.764Z" fill="#022899"/>
<path d="M95.621 51.3356C95.441 51.4436 95.213 51.5036 94.889 51.5036C94.362 51.5036 94.026 51.2166 94.026 50.5446C93.463 51.2036 92.708 51.5036 91.843 51.5036C90.716 51.5036 89.792 51.0006 89.792 49.7656C89.792 48.3626 90.836 48.0626 91.891 47.8586C93.019 47.6426 93.979 47.7136 93.979 46.9466C93.979 46.0596 93.247 45.9156 92.599 45.9156C91.735 45.9156 91.1 46.1796 91.051 47.0916H90.032C90.092 45.5566 91.279 45.0166 92.658 45.0166C93.773 45.0166 94.985 45.2686 94.985 46.7196V49.9096C94.985 50.3886 94.985 50.6046 95.308 50.6046C95.392 50.6046 95.488 50.5926 95.621 50.5446V51.3356ZM93.966 48.1586C93.57 48.4466 92.803 48.4586 92.119 48.5786C91.447 48.6986 90.871 48.9376 90.871 49.6936C90.871 50.3656 91.447 50.6046 92.07 50.6046C93.414 50.6046 93.966 49.7656 93.966 49.2016V48.1586Z" fill="#022899"/>
<path d="M96.572 45.1606H97.531V46.1436H97.554C97.986 45.3756 98.682 45.0156 99.57 45.0156C101.201 45.0156 101.705 45.9516 101.705 47.2826V51.3606H100.685V47.1636C100.685 46.4076 100.206 45.9156 99.425 45.9156C98.191 45.9156 97.591 46.7436 97.591 47.8586V51.3606H96.571V45.1606H96.572Z" fill="#022899"/>
<path d="M108.785 51.3609H107.765V50.5209H107.741C107.406 51.2049 106.614 51.5039 105.762 51.5039C103.855 51.5039 102.908 49.9929 102.908 48.2419C102.908 46.4909 103.844 45.0149 105.738 45.0149C106.374 45.0149 107.286 45.2549 107.741 45.9869H107.765V42.7969H108.785V51.3609ZM105.906 50.6049C107.273 50.6049 107.802 49.4299 107.802 48.2659C107.802 47.0429 107.25 45.9149 105.847 45.9149C104.455 45.9149 103.988 47.1029 103.988 48.3139C103.987 49.4779 104.588 50.6049 105.906 50.6049Z" fill="#022899"/>
<path d="M115.854 51.3356C115.674 51.4436 115.446 51.5036 115.123 51.5036C114.595 51.5036 114.259 51.2166 114.259 50.5446C113.696 51.2036 112.94 51.5036 112.076 51.5036C110.949 51.5036 110.025 51.0006 110.025 49.7656C110.025 48.3626 111.069 48.0626 112.124 47.8586C113.252 47.6426 114.211 47.7136 114.211 46.9466C114.211 46.0596 113.48 45.9156 112.832 45.9156C111.969 45.9156 111.333 46.1796 111.285 47.0916H110.265C110.325 45.5566 111.512 45.0166 112.891 45.0166C114.006 45.0166 115.218 45.2686 115.218 46.7196V49.9096C115.218 50.3886 115.218 50.6046 115.541 50.6046C115.625 50.6046 115.722 50.5926 115.854 50.5446V51.3356ZM114.198 48.1586C113.802 48.4466 113.035 48.4586 112.351 48.5786C111.679 48.6986 111.103 48.9376 111.103 49.6936C111.103 50.3656 111.679 50.6046 112.303 50.6046C113.646 50.6046 114.198 49.7656 114.198 49.2016V48.1586Z" fill="#022899"/>
<path d="M116.769 45.1605H117.729V46.4675H117.752C118.244 45.4725 118.928 44.9805 120.031 45.0165V46.0965C118.387 46.0965 117.788 47.0315 117.788 48.6025V51.3615H116.768V45.1605H116.769Z" fill="#022899"/>
<path d="M126.126 51.3609H125.106V50.5209H125.082C124.747 51.2049 123.955 51.5039 123.103 51.5039C121.196 51.5039 120.249 49.9929 120.249 48.2419C120.249 46.4909 121.185 45.0149 123.08 45.0149C123.715 45.0149 124.627 45.2549 125.082 45.9869H125.106V42.7969H126.126V51.3609ZM123.247 50.6049C124.615 50.6049 125.143 49.4299 125.143 48.2659C125.143 47.0429 124.591 45.9149 123.188 45.9149C121.796 45.9149 121.329 47.1029 121.329 48.3139C121.328 49.4779 121.928 50.6049 123.247 50.6049Z" fill="#022899"/>
<path d="M128.78 44.0439H127.76V42.7969H128.78V44.0439ZM127.761 45.1609H128.781V51.3609H127.761V45.1609Z" fill="#022899"/>
<path d="M129.861 50.5821L133.603 46.0611H130.101V45.1621H134.922V45.8571L131.132 50.4621H135.09V51.3611H129.861V50.5821Z" fill="#022899"/>
<path d="M141.618 51.3356C141.438 51.4436 141.21 51.5036 140.887 51.5036C140.359 51.5036 140.023 51.2166 140.023 50.5446C139.46 51.2036 138.704 51.5036 137.84 51.5036C136.713 51.5036 135.789 51.0006 135.789 49.7656C135.789 48.3626 136.833 48.0626 137.888 47.8586C139.016 47.6426 139.975 47.7136 139.975 46.9466C139.975 46.0596 139.244 45.9156 138.596 45.9156C137.733 45.9156 137.097 46.1796 137.049 47.0916H136.029C136.089 45.5566 137.276 45.0166 138.655 45.0166C139.771 45.0166 140.982 45.2686 140.982 46.7196V49.9096C140.982 50.3886 140.982 50.6046 141.306 50.6046C141.389 50.6046 141.486 50.5926 141.618 50.5446V51.3356ZM139.963 48.1586C139.567 48.4466 138.8 48.4586 138.116 48.5786C137.444 48.6986 136.868 48.9376 136.868 49.6936C136.868 50.3656 137.444 50.6046 138.068 50.6046C139.411 50.6046 139.963 49.7656 139.963 49.2016V48.1586Z" fill="#022899"/>
<path d="M143.984 45.1608H145.219V46.0598H143.984V49.9098C143.984 50.3778 144.116 50.4618 144.752 50.4618H145.22V51.3608H144.441C143.385 51.3608 142.965 51.1448 142.965 50.0058V46.0598H141.91V45.1608H142.965V43.3018H143.985V45.1608H143.984Z" fill="#022899"/>
<path d="M147.429 44.0439H146.409V42.7969H147.429V44.0439ZM146.409 45.1609H147.429V51.3609H146.409V45.1609Z" fill="#022899"/>
<path d="M151.688 45.0156C153.655 45.0156 154.698 46.4436 154.698 48.2656C154.698 50.0776 153.655 51.5036 151.688 51.5036C149.721 51.5036 148.677 50.0766 148.677 48.2656C148.678 46.4436 149.722 45.0156 151.688 45.0156ZM151.688 50.6046C152.755 50.6046 153.619 49.7656 153.619 48.2656C153.619 46.7546 152.756 45.9146 151.688 45.9146C150.62 45.9146 149.756 46.7546 149.756 48.2656C149.757 49.7656 150.621 50.6046 151.688 50.6046Z" fill="#022899"/>
<path d="M155.901 45.1606H156.861V46.1436H156.884C157.316 45.3756 158.011 45.0156 158.899 45.0156C160.531 45.0156 161.034 45.9516 161.034 47.2826V51.3606H160.014V47.1636C160.014 46.4076 159.535 45.9156 158.755 45.9156C157.52 45.9156 156.92 46.7436 156.92 47.8586V51.3606H155.9V45.1606H155.901Z" fill="#022899"/>
</g>
<defs>
<clipPath id="clip0">
<rect width="172.3" height="58.833" fill="white"/>
</clipPath>
</defs>
</svg>
