<svg width="168" height="40" viewBox="0 0 168 40" fill="none" xmlns="http://www.w3.org/2000/svg">
<g clip-path="url(#clip0)">
<path fill-rule="evenodd" clip-rule="evenodd" d="M63.89 17.9869C63.3887 16.7186 62.893 15.5103 62.4027 14.3623C61.9125 13.2142 61.4085 12.0934 60.8907 11H58.197C57.6737 12.0934 57.1669 13.2251 56.6767 14.3951C56.1864 15.565 55.6907 16.7732 55.1894 18.0197C54.6881 19.2881 54.1758 20.6303 53.6525 22.0462C53.1292 23.4622 52.5784 25.0094 52 26.6878H54.9333L55.5695 24.8673C55.7843 24.2549 55.9991 23.6317 56.214 22.9975H62.7746C62.9839 23.6317 63.2015 24.2495 63.4273 24.8509C63.6532 25.4522 63.8707 26.0646 64.0801 26.6878H67.129C66.5451 25.0149 65.9943 23.4677 65.4765 22.0462C64.9587 20.6248 64.4298 19.2717 63.89 17.9869ZM56.9163 20.6603C57.3955 19.3154 57.8555 18.0689 58.2962 16.9209C58.7369 15.7728 59.128 14.7996 59.4695 14.0014C59.8 14.7723 60.1883 15.7372 60.6345 16.8963C61.0807 18.0553 61.5434 19.3072 62.0226 20.6521L56.9163 20.6603ZM76.2841 19.4384H71.8718V14.8215H69.1616V26.6632H71.8718V21.7428H76.2841V26.6632H78.9942V14.8215H76.2841V19.4384ZM90.8429 23.2271C90.3582 22.6476 89.8652 22.1009 89.3639 21.587C88.9054 21.1067 88.4228 20.6496 87.9179 20.2175L89.116 18.9874L90.4629 17.5605L91.7849 16.1254C92.209 15.6552 92.5864 15.2261 92.9169 14.8379H89.7357C89.4989 15.1222 89.2014 15.4666 88.8434 15.8712L87.7114 17.1259L86.5133 18.3806C86.1112 18.8125 85.7366 19.2006 85.3896 19.5451V14.7887H82.6794V26.6632H85.373V21.341C85.8149 21.6773 86.2345 22.0416 86.629 22.4317C87.0641 22.8526 87.491 23.3009 87.9097 23.7766C88.3283 24.2522 88.7277 24.7388 89.1078 25.2363C89.4879 25.7338 89.8211 26.2094 90.1076 26.6632H93.2474C92.9263 26.0989 92.5761 25.5515 92.198 25.0231C91.7849 24.4217 91.3332 23.8258 90.8429 23.2353V23.2271ZM99.7336 14.5263C99.0422 14.5267 98.3575 14.6603 97.7175 14.9199C97.0561 15.1862 96.459 15.5887 95.9658 16.1008C95.4288 16.6653 95.0128 17.3321 94.7429 18.0607C94.4196 18.9376 94.2627 19.8662 94.2802 20.7998C94.2701 21.6331 94.3899 22.463 94.6355 23.2599C94.8591 23.9777 95.2336 24.6402 95.7345 25.2035C96.2537 25.7714 96.8986 26.2121 97.6183 26.491C98.4771 26.819 99.392 26.9778 100.312 26.9584C100.71 26.9596 101.107 26.9377 101.502 26.8928C101.893 26.8491 102.256 26.7917 102.592 26.7206C102.894 26.66 103.192 26.5834 103.485 26.491C103.697 26.4279 103.905 26.3483 104.105 26.2532L103.749 24.0144C103.332 24.1818 102.901 24.3109 102.46 24.3998C101.868 24.5253 101.264 24.5858 100.659 24.5802C99.7295 24.6336 98.8133 24.3412 98.0893 23.7602C97.784 23.4763 97.5385 23.1352 97.3669 22.7565C97.1953 22.3779 97.101 21.9692 97.0895 21.5542H104.823C104.823 21.4011 104.823 21.2316 104.823 21.0458C104.823 20.8599 104.823 20.6904 104.823 20.5373C104.946 18.9146 104.463 17.3038 103.468 16.0106C102.992 15.5089 102.411 15.1162 101.766 14.8599C101.121 14.6035 100.427 14.4897 99.7336 14.5263V14.5263ZM97.1143 19.5779C97.1597 19.231 97.2429 18.8901 97.3622 18.561C97.4756 18.2383 97.6463 17.9383 97.8662 17.6753C98.0943 17.412 98.3759 17.1996 98.6925 17.0521C99.0345 16.8871 99.4113 16.8055 99.7914 16.8142C100.15 16.8045 100.507 16.8774 100.833 17.0275C101.121 17.1675 101.375 17.3691 101.576 17.6179C101.786 17.8808 101.944 18.1815 102.039 18.5036C102.145 18.852 102.198 19.214 102.196 19.5779H97.1143ZM106.526 17.1177H110.293V26.6632H113.003V17.1095H116.771V14.8215H106.526V17.1177ZM128.066 16.232C127.572 15.6886 126.962 15.2601 126.282 14.9773C125.562 14.6779 124.789 14.5272 124.009 14.5345C123.232 14.526 122.461 14.6767 121.745 14.9773C121.067 15.2638 120.458 15.6917 119.961 16.232C119.444 16.8016 119.048 17.468 118.796 18.192C118.51 19.0119 118.37 19.8749 118.383 20.7423C118.371 21.6124 118.511 22.478 118.796 23.3009C119.047 24.0262 119.44 24.6951 119.952 25.2691C120.448 25.808 121.054 26.2358 121.729 26.5238C122.451 26.8324 123.231 26.9861 124.018 26.9748C124.807 26.9848 125.589 26.8312 126.315 26.5238C126.995 26.2327 127.604 25.7991 128.099 25.2527C128.609 24.6794 128.997 24.01 129.24 23.2845C129.518 22.4602 129.655 21.5953 129.645 20.7259C129.657 19.8585 129.517 18.9955 129.231 18.1755C128.973 17.4552 128.574 16.7921 128.058 16.2238L128.066 16.232ZM126.108 23.5716C125.864 23.8941 125.548 24.1559 125.184 24.3362C124.821 24.5165 124.42 24.6103 124.014 24.6103C123.607 24.6103 123.206 24.5165 122.843 24.3362C122.479 24.1559 122.163 23.8941 121.919 23.5716C121.376 22.7299 121.113 21.7403 121.167 20.7423C121.114 19.7548 121.377 18.7759 121.919 17.9459C122.165 17.6263 122.482 17.3673 122.845 17.189C123.208 17.0107 123.608 16.9179 124.014 16.9179C124.419 16.9179 124.819 17.0107 125.182 17.189C125.545 17.3673 125.862 17.6263 126.108 17.9459C126.65 18.7759 126.913 19.7548 126.86 20.7423C126.909 21.7384 126.643 22.7247 126.1 23.5634L126.108 23.5716ZM134.66 16.3058C134.66 16.8525 134.66 17.3992 134.66 17.9459C134.66 18.4926 134.627 19.0558 134.561 19.6353C134.506 20.182 134.431 20.7068 134.338 21.2098C134.253 21.6698 134.114 22.1185 133.925 22.5465C133.717 23.0545 133.385 23.5027 132.958 23.8504C132.437 24.2348 131.831 24.4881 131.19 24.5884L131.57 26.8764C132.379 26.8145 133.168 26.5944 133.892 26.2286C134.487 25.9013 135.014 25.4643 135.445 24.9411C135.867 24.4528 136.205 23.8986 136.445 23.3009C136.687 22.6558 136.865 21.9882 136.974 21.3082C137.087 20.6077 137.159 19.9012 137.188 19.1924C137.216 18.4762 137.238 17.7847 137.255 17.1177H140.237V26.6632H142.947V14.8215H134.685L134.66 16.3058ZM155.664 16.2402C155.169 15.6968 154.56 15.2683 153.879 14.9855C153.16 14.6861 152.387 14.5354 151.607 14.5427C150.829 14.5342 150.059 14.6849 149.343 14.9855C148.664 15.272 148.056 15.6999 147.558 16.2402C147.042 16.8098 146.646 17.4762 146.393 18.2002C146.107 19.02 145.967 19.8831 145.98 20.7505C145.968 21.6206 146.108 22.4862 146.393 23.3091C146.644 24.0344 147.037 24.7033 147.55 25.2773C148.041 25.8212 148.644 26.2546 149.318 26.5484C150.04 26.857 150.82 27.0107 151.607 26.9994C152.396 27.0094 153.178 26.8558 153.904 26.5484C154.584 26.2573 155.193 25.8237 155.689 25.2773C156.198 24.704 156.586 24.0346 156.829 23.3091C157.107 22.4848 157.244 21.6199 157.234 20.7505C157.246 19.8831 157.106 19.0201 156.821 18.2002C156.565 17.471 156.166 16.7994 155.647 16.2238L155.664 16.2402ZM153.706 23.5798C153.462 23.9023 153.145 24.1641 152.782 24.3444C152.418 24.5247 152.017 24.6185 151.611 24.6185C151.205 24.6185 150.804 24.5247 150.44 24.3444C150.077 24.1641 149.76 23.9023 149.516 23.5798C148.973 22.7381 148.71 21.7485 148.764 20.7505C148.711 19.763 148.974 18.7841 149.516 17.9541C149.762 17.6345 150.079 17.3755 150.443 17.1972C150.806 17.0189 151.206 16.9262 151.611 16.9262C152.016 16.9262 152.416 17.0189 152.779 17.1972C153.143 17.3755 153.46 17.6345 153.706 17.9541C154.247 18.7841 154.511 19.763 154.457 20.7505C154.502 21.7447 154.234 22.728 153.689 23.5634L153.706 23.5798ZM160.258 14.8379V26.6632H162.968V17.0849H168V14.8215L160.258 14.8379Z" fill="#34495E"/>
<path fill-rule="evenodd" clip-rule="evenodd" d="M15.7699 35.8552L16.4336 33.1684C14.1175 32.6523 11.9901 31.507 10.2876 29.8597C8.58507 28.2123 7.37392 26.1273 6.78852 23.8359L4.15039 24.5223C4.8541 27.2929 6.31099 29.8167 8.36093 31.816C10.4109 33.8154 12.9745 35.213 15.7699 35.8552Z" fill="#B0D7E6"/>
<path fill-rule="evenodd" clip-rule="evenodd" d="M31.0947 24.9668C30.0473 27.9178 27.9565 30.3875 25.2135 31.9139L26.835 35.1865C30.3891 33.2414 33.1057 30.0676 34.4721 26.2641L31.0947 24.9668Z" fill="#60A9C5"/>
<path fill-rule="evenodd" clip-rule="evenodd" d="M28.5153 37.7652L25.3815 31.7891C22.6052 33.3211 19.3577 33.7744 16.2657 33.0613L14.5853 39.3722C19.2634 40.6399 24.2518 40.0644 28.5153 37.7652V37.7652Z" fill="#8FC4D9"/>
<path fill-rule="evenodd" clip-rule="evenodd" d="M31.876 20.5642C31.8774 22.2516 31.5493 23.9232 30.9098 25.4857L36.9926 28.139C38.3491 24.6411 38.6155 20.8171 37.7572 17.166L31.6996 18.2876C31.8247 19.0399 31.8838 19.8017 31.876 20.5642Z" fill="#318EB4"/>
<path fill-rule="evenodd" clip-rule="evenodd" d="M6.36003 20.5639C6.36157 18.688 6.77147 16.8347 7.56147 15.1318L1.7223 12.5371C-0.250424 16.9141 -0.549227 21.8585 0.88213 26.4396L6.96495 24.5061C6.56174 23.2307 6.35771 21.9011 6.36003 20.5639V20.5639Z" fill="#8FC4D9"/>
<path fill-rule="evenodd" clip-rule="evenodd" d="M3.35229 13.3238L7.55314 15.182C8.30777 13.5115 9.41401 12.0222 10.7969 10.815C12.1798 9.6077 13.807 8.71068 15.5683 8.18468L14.1569 3.79883C11.7771 4.52479 9.58129 5.75065 7.71746 7.39376C5.85362 9.03687 4.36511 11.059 3.35229 13.3238V13.3238Z" fill="#60A9C5"/>
<path fill-rule="evenodd" clip-rule="evenodd" d="M12.6614 2.493L14.9214 8.42729C16.4756 7.87259 18.125 7.63133 19.7736 7.71754C21.4223 7.80376 23.0372 8.21573 24.5245 8.92949L27.1711 2.72735C22.5487 0.774301 17.3448 0.690248 12.6614 2.493V2.493Z" fill="#318EB4"/>
<path fill-rule="evenodd" clip-rule="evenodd" d="M27.7675 -0.0175781L24.2556 8.77087C26.1933 9.64226 27.885 10.9767 29.1806 12.6559C30.4762 14.335 31.3357 16.3068 31.6827 18.3963L41.4454 16.6721C40.7476 12.9729 39.13 9.50711 36.7405 6.59152C34.3511 3.67593 31.266 1.40364 27.7675 -0.0175781V-0.0175781Z" fill="#0C74A4"/>
<path fill-rule="evenodd" clip-rule="evenodd" d="M24.6841 25.2438C24.2389 24.0051 23.9868 23.5196 23.5919 22.4483C23.197 21.3769 22.8022 20.3391 22.4241 19.3681C22.046 18.3972 21.6595 17.4682 21.2899 16.5809C20.9202 15.6937 20.5169 14.8233 20.1136 13.9528C20.0506 13.7999 19.9436 13.6691 19.806 13.5767C19.6685 13.4844 19.5065 13.4347 19.3407 13.4338C19.1465 13.4291 18.9566 13.4916 18.8034 13.6106C18.6502 13.7296 18.5432 13.8979 18.5005 14.0867C18.114 14.9125 17.7416 15.7495 17.3831 16.5977C17.0246 17.4458 16.6465 18.3749 16.2489 19.3849C15.8792 20.3446 15.4871 21.3658 15.0726 22.4483C14.6777 23.528 14.4929 24.1223 14.0476 25.3527C13.9889 25.4667 13.9573 25.5927 13.9552 25.7209C13.9552 25.9429 14.0437 26.1558 14.2013 26.3128C14.3588 26.4697 14.5725 26.5579 14.7954 26.5579C14.9527 26.5529 15.1054 26.5039 15.2361 26.4166C15.3668 26.3293 15.4703 26.2071 15.5347 26.0641V26.0641L16.6017 22.8919H21.9704L22.4997 24.432C22.6677 24.9342 22.8526 25.4698 23.0458 25.9888C23.1123 26.1561 23.2282 26.2993 23.3783 26.3995C23.5283 26.4997 23.7054 26.552 23.886 26.5496C24.1252 26.5452 24.3529 26.4468 24.5197 26.276C24.6865 26.1051 24.7788 25.8756 24.7766 25.6372C24.7754 25.5009 24.7438 25.3665 24.6841 25.2438V25.2438ZM17.1226 21.5192C17.4755 20.5148 17.8312 19.5411 18.1896 18.5981C18.5481 17.6551 18.9094 16.7511 19.2735 15.8862C19.6599 16.7567 20.0324 17.6635 20.3909 18.6065C20.7494 19.5495 21.1106 20.5232 21.4747 21.5276L17.1226 21.5192Z" fill="#EF4744"/>
</g>
<defs>
<clipPath id="clip0">
<rect width="168" height="40" fill="white"/>
</clipPath>
</defs>
</svg>
